<svg id="icons8-javascript" xmlns="http://www.w3.org/2000/svg" width="96.435" height="98.054" viewBox="0 0 96.435 98.054">
  <path id="Path_54" data-name="Path 54" d="M5.026,8.794l9.405,76.493A6.835,6.835,0,0,0,19.421,91l30.172,8.414a7.115,7.115,0,0,0,3.737.022l31.733-8.446a6.826,6.826,0,0,0,5.085-5.868L97.976,8.728A3.422,3.422,0,0,0,94.519,5H8.474A3.42,3.42,0,0,0,5.026,8.794Z" transform="translate(-3.28 -3.309)" fill="#ffa100"/>
  <path id="Path_55" data-name="Path 55" d="M67.028,10H32V87.767a5.423,5.423,0,0,0,1.523-.208l25.814-7.39a5.858,5.858,0,0,0,4.137-5.134l6.368-61.773A2.917,2.917,0,0,0,67.028,10Z" transform="translate(16.179 0.144)" fill="#ffbc1c"/>
  <path id="Path_56" data-name="Path 56" d="M52.222,102.054a8.938,8.938,0,0,1-2.378-.323L19.67,93.316a8.518,8.518,0,0,1-6.229-7.136L4.038,9.687h0A5.006,5.006,0,0,1,5.3,5.721,5.246,5.246,0,0,1,9.195,4H95.24A5.258,5.258,0,0,1,99.1,5.68a5.023,5.023,0,0,1,1.309,3.907L92.581,85.98a8.575,8.575,0,0,1-6.348,7.33L54.5,101.757A8.9,8.9,0,0,1,52.222,102.054ZM9.195,7.381a1.751,1.751,0,0,0-1.32.582,1.643,1.643,0,0,0-.42,1.319h0L16.86,85.774a5.125,5.125,0,0,0,3.753,4.289l30.172,8.414a5.344,5.344,0,0,0,2.817.015l31.733-8.446a5.156,5.156,0,0,0,3.823-4.4L96.986,9.249a1.65,1.65,0,0,0-.435-1.3,1.765,1.765,0,0,0-1.311-.568Z" transform="translate(-4 -4)" fill="#8d6c9f"/>
  <path id="Path_57" data-name="Path 57" d="M93.755,14.762a1.706,1.706,0,0,1-1.721-1.691V9.691a1.721,1.721,0,0,1,3.441,0v3.381A1.706,1.706,0,0,1,93.755,14.762Zm-8.6,0a1.706,1.706,0,0,1-1.721-1.691V9.691a1.721,1.721,0,0,1,3.441,0v3.381A1.706,1.706,0,0,1,85.152,14.762Zm-8.6,0a1.706,1.706,0,0,1-1.721-1.691V9.691a1.721,1.721,0,0,1,3.441,0v3.381A1.706,1.706,0,0,1,76.549,14.762Zm-8.6,0a1.706,1.706,0,0,1-1.721-1.691V9.691a1.721,1.721,0,0,1,3.441,0v3.381A1.706,1.706,0,0,1,67.945,14.762Zm-8.6,0a1.706,1.706,0,0,1-1.721-1.691V9.691a1.721,1.721,0,0,1,3.441,0v3.381A1.706,1.706,0,0,1,59.342,14.762Zm-8.6,0a1.706,1.706,0,0,1-1.721-1.691V9.691a1.721,1.721,0,0,1,3.441,0v3.381A1.706,1.706,0,0,1,50.738,14.762Zm-8.6,0a1.706,1.706,0,0,1-1.721-1.691V9.691a1.721,1.721,0,0,1,3.441,0v3.381A1.706,1.706,0,0,1,42.135,14.762Zm-8.6,0a1.706,1.706,0,0,1-1.721-1.691V9.691a1.721,1.721,0,0,1,3.441,0v3.381A1.706,1.706,0,0,1,33.531,14.762Zm-8.6,0a1.706,1.706,0,0,1-1.721-1.691V9.691a1.721,1.721,0,0,1,3.441,0v3.381A1.706,1.706,0,0,1,24.928,14.762Zm-8.6,0A1.706,1.706,0,0,1,14.6,13.072V9.691a1.721,1.721,0,0,1,3.441,0v3.381A1.706,1.706,0,0,1,16.324,14.762Zm-8.6,0A1.706,1.706,0,0,1,6,13.072V9.691a1.721,1.721,0,0,1,3.441,0v3.381A1.706,1.706,0,0,1,7.721,14.762Z" transform="translate(-2.559 -1.238)" fill="#8d6c9f"/>
  <path id="Path_58" data-name="Path 58" d="M36.364,60.274l-9.113-2.541a1.687,1.687,0,0,1-1.186-2.088,1.725,1.725,0,0,1,2.125-1.165l8.2,2.286,6.37-1.7a1.726,1.726,0,0,1,2.111,1.19,1.687,1.687,0,0,1-1.211,2.074ZM50.09,56.561a1.717,1.717,0,0,1-1.66-1.249,1.689,1.689,0,0,1,1.211-2.074l3.441-.915a1.725,1.725,0,0,1,2.111,1.19,1.689,1.689,0,0,1-1.211,2.074l-3.441.915A1.816,1.816,0,0,1,50.09,56.561Z" transform="translate(11.855 29.331)" fill="#8d6c9f"/>
  <path id="Path_59" data-name="Path 59" d="M63.979,17h-41.3L18.666,47.431H55.3l-1.55,12.891L41.772,63.909l-10.577-3.52-.993-6.2H19.75l2.218,13.836L41.1,74.394a1.694,1.694,0,0,0,1.019.015l20.034-6a1.672,1.672,0,0,0,1.189-1.4l3.347-27.836a1.7,1.7,0,0,0-1.707-1.89H29.565q.859-5.072,1.721-10.144H56.16q.467,1.691.936,3.381H67.42Q65.7,23.762,63.979,17Z" transform="translate(6.569 4.978)" fill="#faefde"/>
  <path id="Path_60" data-name="Path 60" d="M42.353,76.861a3.442,3.442,0,0,1-1.077-.172L22.137,70.32a1.7,1.7,0,0,1-1.148-1.339L18.771,55.146a1.676,1.676,0,0,1,.392-1.363,1.725,1.725,0,0,1,1.308-.59H30.922a1.713,1.713,0,0,1,1.7,1.429l.831,5.185,9.066,3.018,10.374-3.107,1.191-9.905h-34.7a1.731,1.731,0,0,1-1.292-.575A1.67,1.67,0,0,1,17.68,47.9L21.7,17.473A1.712,1.712,0,0,1,23.4,16H64.7a1.716,1.716,0,0,1,1.669,1.28L69.81,30.8a1.669,1.669,0,0,1-.313,1.451,1.729,1.729,0,0,1-1.356.651H57.817a1.715,1.715,0,0,1-1.66-1.248l-.59-2.134h-22.1l-1.148,6.762H65.7a3.474,3.474,0,0,1,2.572,1.134,3.352,3.352,0,0,1,.845,2.646L65.77,67.9a3.37,3.37,0,0,1-2.4,2.818l-20.036,6A3.486,3.486,0,0,1,42.353,76.861ZM24.226,67.446l18.146,6.037,20-6L65.7,39.67l-35.415,0a1.73,1.73,0,0,1-1.313-.6,1.673,1.673,0,0,1-.384-1.371L30.31,27.555a1.712,1.712,0,0,1,1.7-1.412H56.881a1.715,1.715,0,0,1,1.66,1.248l.59,2.134h6.805L63.356,19.381H24.916l-3.57,27.049H56.021A1.738,1.738,0,0,1,57.308,47a1.681,1.681,0,0,1,.423,1.322L56.181,61.21a1.7,1.7,0,0,1-1.208,1.418L42.995,66.216a1.775,1.775,0,0,1-1.053-.015l-10.577-3.52a1.7,1.7,0,0,1-1.148-1.339l-.766-4.767H22.484Z" transform="translate(5.848 4.287)" fill="#8d6c9f"/>
</svg>
