<svg id="icons8-javascript-logo" xmlns="http://www.w3.org/2000/svg" width="96.438" height="98.054" viewBox="0 0 96.438 98.054">
  <path id="Path_81" data-name="Path 81" d="M5.026,8.794l9.405,76.493A6.835,6.835,0,0,0,19.421,91l30.172,8.414a7.115,7.115,0,0,0,3.737.022l31.733-8.446a6.826,6.826,0,0,0,5.085-5.868L97.976,8.728A3.422,3.422,0,0,0,94.519,5H8.474A3.42,3.42,0,0,0,5.026,8.794Z" transform="translate(-3.278 -3.309)" fill="#f6d397"/>
  <path id="Path_82" data-name="Path 82" d="M67.028,10H32V87.767a5.424,5.424,0,0,0,1.523-.208l25.814-7.39a5.858,5.858,0,0,0,4.137-5.134l6.368-61.773A2.917,2.917,0,0,0,67.028,10Z" transform="translate(16.181 0.144)" fill="#f9e3ae"/>
  <path id="Path_83" data-name="Path 83" d="M52.223,102.054a8.938,8.938,0,0,1-2.378-.323L19.671,93.316a8.513,8.513,0,0,1-6.227-7.136L4.037,9.687A5.014,5.014,0,0,1,5.3,5.719,5.257,5.257,0,0,1,9.2,4H95.242A5.259,5.259,0,0,1,99.1,5.682a5.023,5.023,0,0,1,1.308,3.907L92.582,85.98a8.577,8.577,0,0,1-6.346,7.33L54.5,101.757A8.9,8.9,0,0,1,52.223,102.054ZM9.2,7.381a1.754,1.754,0,0,0-1.32.582,1.643,1.643,0,0,0-.42,1.319h0l9.407,76.493a5.123,5.123,0,0,0,3.751,4.289l30.172,8.414a5.344,5.344,0,0,0,2.817.015l31.733-8.446a5.16,5.16,0,0,0,3.823-4.4L96.987,9.249a1.657,1.657,0,0,0-.435-1.3,1.764,1.764,0,0,0-1.311-.568Z" transform="translate(-3.999 -4)" fill="#8d6c9f"/>
  <path id="Path_84" data-name="Path 84" d="M93.755,14.762a1.705,1.705,0,0,1-1.721-1.691V9.691a1.721,1.721,0,0,1,3.441,0v3.381A1.705,1.705,0,0,1,93.755,14.762Zm-8.6,0a1.705,1.705,0,0,1-1.721-1.691V9.691a1.721,1.721,0,0,1,3.441,0v3.381A1.705,1.705,0,0,1,85.152,14.762Zm-8.6,0a1.705,1.705,0,0,1-1.721-1.691V9.691a1.721,1.721,0,0,1,3.441,0v3.381A1.705,1.705,0,0,1,76.549,14.762Zm-8.6,0a1.705,1.705,0,0,1-1.721-1.691V9.691a1.721,1.721,0,0,1,3.441,0v3.381A1.705,1.705,0,0,1,67.945,14.762Zm-8.6,0a1.705,1.705,0,0,1-1.721-1.691V9.691a1.721,1.721,0,0,1,3.441,0v3.381A1.705,1.705,0,0,1,59.342,14.762Zm-8.6,0a1.705,1.705,0,0,1-1.721-1.691V9.691a1.721,1.721,0,0,1,3.441,0v3.381A1.705,1.705,0,0,1,50.738,14.762Zm-8.6,0a1.705,1.705,0,0,1-1.721-1.691V9.691a1.721,1.721,0,0,1,3.441,0v3.381A1.705,1.705,0,0,1,42.135,14.762Zm-8.6,0a1.705,1.705,0,0,1-1.721-1.691V9.691a1.721,1.721,0,0,1,3.441,0v3.381A1.705,1.705,0,0,1,33.531,14.762Zm-8.6,0a1.705,1.705,0,0,1-1.721-1.691V9.691a1.721,1.721,0,0,1,3.441,0v3.381A1.705,1.705,0,0,1,24.928,14.762Zm-8.6,0A1.705,1.705,0,0,1,14.6,13.072V9.691a1.721,1.721,0,0,1,3.441,0v3.381A1.705,1.705,0,0,1,16.324,14.762Zm-8.6,0A1.705,1.705,0,0,1,6,13.072V9.691a1.721,1.721,0,0,1,3.441,0v3.381A1.705,1.705,0,0,1,7.721,14.762Z" transform="translate(-2.558 -1.238)" fill="#8d6c9f"/>
  <path id="Path_85" data-name="Path 85" d="M30.486,19V61.265L15,57.884l1.058,10.144,23.032,6.45V19Z" transform="translate(3.929 6.359)" fill="#faefde"/>
  <path id="Path_86" data-name="Path 86" d="M60.5,27.534,61.251,19H35V56.193q7.7-1.747,15.393-3.493l-.544,8L35,64.646V74.79l21.908-6.181L59.2,42.471,43.6,44.359V27.453Z" transform="translate(18.343 6.359)" fill="#faefde"/>
  <path id="Path_87" data-name="Path 87" d="M39.81,76.858a1.79,1.79,0,0,1-.471-.064l-23.032-6.45a1.7,1.7,0,0,1-1.241-1.454L14.009,58.747a1.682,1.682,0,0,1,.568-1.435,1.739,1.739,0,0,1,1.518-.387l13.392,2.923V19.691A1.705,1.705,0,0,1,31.207,18h8.6a1.705,1.705,0,0,1,1.721,1.691V75.167a1.683,1.683,0,0,1-.683,1.349A1.74,1.74,0,0,1,39.81,76.858ZM18.372,67.406,38.09,72.927V21.381H32.928V61.955a1.683,1.683,0,0,1-.644,1.319,1.742,1.742,0,0,1-1.451.331L17.675,60.733Z" transform="translate(3.208 5.668)" fill="#8d6c9f"/>
  <path id="Path_88" data-name="Path 88" d="M35.721,77.171a1.744,1.744,0,0,1-1.036-.34A1.68,1.68,0,0,1,34,75.48V65.337a1.694,1.694,0,0,1,1.272-1.631l13.662-3.63.308-4.526L36.106,58.53a1.733,1.733,0,0,1-1.457-.323A1.673,1.673,0,0,1,34,56.884V19.691A1.705,1.705,0,0,1,35.721,18H61.973a1.738,1.738,0,0,1,1.268.548,1.676,1.676,0,0,1,.446,1.288l-.75,8.534a1.718,1.718,0,0,1-1.722,1.545l-15.17-.073V43.137l13.662-1.655a1.751,1.751,0,0,1,1.4.46,1.673,1.673,0,0,1,.52,1.363L59.342,69.443A1.7,1.7,0,0,1,58.1,70.922L36.2,77.1A1.622,1.622,0,0,1,35.721,77.171Zm1.721-10.539v6.605L56.016,68l2-22.9L44.534,46.728a1.752,1.752,0,0,1-1.349-.413,1.675,1.675,0,0,1-.582-1.266V28.144a1.707,1.707,0,0,1,1.729-1.691l15.312.074.453-5.146H37.441V54.759l13.287-3.014a1.73,1.73,0,0,1,1.5.36,1.682,1.682,0,0,1,.6,1.4l-.544,8a1.7,1.7,0,0,1-1.268,1.518Z" transform="translate(17.622 5.668)" fill="#8d6c9f"/>
</svg>
