<svg id="Group_145" data-name="Group 145" xmlns="http://www.w3.org/2000/svg" width="96.438" height="98.054" viewBox="0 0 96.438 98.054">
  <g id="icons8-javascript-logo" transform="translate(0)">
    <path id="Path_81" data-name="Path 81" d="M5.026,8.794l9.405,76.493A6.835,6.835,0,0,0,19.421,91l30.172,8.414a7.115,7.115,0,0,0,3.737.022l31.733-8.446a6.826,6.826,0,0,0,5.085-5.868L97.976,8.728A3.422,3.422,0,0,0,94.519,5H8.474A3.42,3.42,0,0,0,5.026,8.794Z" transform="translate(-3.278 -3.309)" fill="#004d40"/>
    <path id="Path_82" data-name="Path 82" d="M67.028,10H32V87.767a5.424,5.424,0,0,0,1.523-.208l25.814-7.39a5.858,5.858,0,0,0,4.137-5.134l6.368-61.773A2.917,2.917,0,0,0,67.028,10Z" transform="translate(16.181 0.144)" fill="#109881"/>
    <path id="Path_83" data-name="Path 83" d="M52.223,102.054a8.938,8.938,0,0,1-2.378-.323L19.671,93.316a8.513,8.513,0,0,1-6.227-7.136L4.037,9.687A5.014,5.014,0,0,1,5.3,5.719,5.257,5.257,0,0,1,9.2,4H95.242A5.259,5.259,0,0,1,99.1,5.682a5.023,5.023,0,0,1,1.308,3.907L92.582,85.98a8.577,8.577,0,0,1-6.346,7.33L54.5,101.757A8.9,8.9,0,0,1,52.223,102.054ZM9.2,7.381a1.754,1.754,0,0,0-1.32.582,1.643,1.643,0,0,0-.42,1.319h0l9.407,76.493a5.123,5.123,0,0,0,3.751,4.289l30.172,8.414a5.344,5.344,0,0,0,2.817.015l31.733-8.446a5.16,5.16,0,0,0,3.823-4.4L96.987,9.249a1.657,1.657,0,0,0-.435-1.3,1.764,1.764,0,0,0-1.311-.568Z" transform="translate(-3.999 -4)" fill="#4961b7"/>
    <path id="Path_84" data-name="Path 84" d="M93.755,14.762a1.705,1.705,0,0,1-1.721-1.691V9.691a1.721,1.721,0,0,1,3.441,0v3.381A1.705,1.705,0,0,1,93.755,14.762Zm-8.6,0a1.705,1.705,0,0,1-1.721-1.691V9.691a1.721,1.721,0,0,1,3.441,0v3.381A1.705,1.705,0,0,1,85.152,14.762Zm-8.6,0a1.705,1.705,0,0,1-1.721-1.691V9.691a1.721,1.721,0,0,1,3.441,0v3.381A1.705,1.705,0,0,1,76.549,14.762Zm-8.6,0a1.705,1.705,0,0,1-1.721-1.691V9.691a1.721,1.721,0,0,1,3.441,0v3.381A1.705,1.705,0,0,1,67.945,14.762Zm-8.6,0a1.705,1.705,0,0,1-1.721-1.691V9.691a1.721,1.721,0,0,1,3.441,0v3.381A1.705,1.705,0,0,1,59.342,14.762Zm-8.6,0a1.705,1.705,0,0,1-1.721-1.691V9.691a1.721,1.721,0,0,1,3.441,0v3.381A1.705,1.705,0,0,1,50.738,14.762Zm-8.6,0a1.705,1.705,0,0,1-1.721-1.691V9.691a1.721,1.721,0,0,1,3.441,0v3.381A1.705,1.705,0,0,1,42.135,14.762Zm-8.6,0a1.705,1.705,0,0,1-1.721-1.691V9.691a1.721,1.721,0,0,1,3.441,0v3.381A1.705,1.705,0,0,1,33.531,14.762Zm-8.6,0a1.705,1.705,0,0,1-1.721-1.691V9.691a1.721,1.721,0,0,1,3.441,0v3.381A1.705,1.705,0,0,1,24.928,14.762Zm-8.6,0A1.705,1.705,0,0,1,14.6,13.072V9.691a1.721,1.721,0,0,1,3.441,0v3.381A1.705,1.705,0,0,1,16.324,14.762Zm-8.6,0A1.705,1.705,0,0,1,6,13.072V9.691a1.721,1.721,0,0,1,3.441,0v3.381A1.705,1.705,0,0,1,7.721,14.762Z" transform="translate(-2.558 -1.238)" fill="#4961b7"/>
  </g>
  <path id="Path_89" data-name="Path 89" d="M29.022,16l.047,55.741c-4.952-.908-5.558-1.559-11.754-2.856C7.574,66.161,0,63.3,0,52.053,0,41.22,6.425,34.19,16.383,34.19a13.793,13.793,0,0,1,4.146.548V16ZM20.529,43.285a8.647,8.647,0,0,0-3.214-.548c-4.7,0-8.721,1.331-8.945,5.717.04-.111-.006.015-.051.143,0,5.648,2.469,7.533,8.063,9.159a21.317,21.317,0,0,0,4.146.822V43.285Z" transform="translate(13.965 9.364)" fill="#faefde" fill-rule="evenodd"/>
  <path id="Path_93" data-name="Path 93" d="M29.022,16l.047,55.741c-4.952-.908-5.558-1.559-11.754-2.856C7.574,66.161,0,63.3,0,52.053,0,41.22,6.425,34.19,16.383,34.19a13.793,13.793,0,0,1,4.146.548V16ZM20.529,43.285a8.647,8.647,0,0,0-3.214-.548c-4.7,0-8.721,1.331-8.945,5.717.04-.111-.006.015-.051.143,0,5.648,2.469,7.533,8.063,9.159a21.317,21.317,0,0,0,4.146.822V43.285Z" transform="translate(13.965 9.364)" fill="none" stroke="#4961b7" stroke-linejoin="round" stroke-width="3" fill-rule="evenodd"/>
  <g id="Group_102" data-name="Group 102" transform="translate(53.337 25.304)">
    <path id="Union_2" data-name="Union 2" d="M1.2,39.478c5.742-1.568,8.907-1.613,12.64-2.945.233-2.663,1.121-.912,1.51-9.371l.783-14.4H8.477l-.045,2.4H.021V0H26.283l-.77,12.762h-.361L23.9,29.434c-.622,8.381-1.322,16.6-1.711,19.895C19,50.5,5.647,53.87,0,55.985Z" transform="translate(0 0)" fill="#faefde"/>
  </g>
  <g id="Group_103" data-name="Group 103" transform="translate(53.337 25.304)">
    <g id="Union_2-2" data-name="Union 2" transform="translate(0 0)" fill="none" stroke-linejoin="round">
      <path d="M0,38.364c5.849-1.568,8.944-2.115,12.747-3.447.685-5.768.327-4.217.715-7.582l1.032-13.667-5.856.492-.059,2.768H.022V0H26.775L25.723,12.724l-.1.008-1.278,16.7c-.634,8.38-1.347,16.6-1.742,19.894C19.356,50.5,5.753,53.87,0,55.985Z" stroke="none"/>
      <path d="M 3.000004291534424 51.83704376220703 C 6.185851097106934 50.86110305786133 10.02911758422852 49.80113983154297 13.55459403991699 48.82882690429688 C 15.93316745758057 48.17282867431641 18.22168922424316 47.54165649414063 19.83408546447754 47.06250762939453 C 20.2291145324707 43.21076965332031 20.8052806854248 36.46532440185547 21.35440444946289 29.20488739013672 L 22.63286399841309 12.50357818603516 C 22.65340423583984 12.23526000976563 22.70901489257813 11.976806640625 22.79508972167969 11.73299789428711 L 23.51694297790527 2.999997615814209 L 3.021734237670898 2.999997615814209 L 3.021734237670898 13.92813777923584 L 5.646358489990234 13.92813777923584 C 5.758264064788818 12.47010898590088 6.912794589996338 11.29396343231201 8.386323928833008 11.17016792297363 L 14.24224376678467 10.67819786071777 C 14.32620620727539 10.67114448547363 14.41003036499023 10.6676549911499 14.49357414245605 10.6676549911499 C 15.28131484985352 10.6676549911499 16.04158401489258 10.97800445556641 16.6057243347168 11.53739738464355 C 17.22970390319824 12.15611743927002 17.55103492736816 13.01730728149414 17.48488426208496 13.8935375213623 L 16.45294380187988 27.56097793579102 C 16.44998359680176 27.60014724731445 16.44625473022461 27.63925743103027 16.44176483154297 27.67827796936035 C 16.2868537902832 29.02362823486328 16.2600040435791 29.50908851623535 16.22891426086426 30.07118797302246 C 16.18236351013184 30.9127368927002 16.12961387634277 31.86656761169434 15.72561454772949 35.27092742919922 C 15.59059429168701 36.40862655639648 14.8193941116333 37.37009811401367 13.73810386657715 37.74878692626953 C 11.16255378723145 38.65077590942383 8.928244590759277 39.20326614379883 6.099503993988037 39.90272903442383 C 5.154611110687256 40.13637924194336 4.131674766540527 40.38932418823242 3.000004291534424 40.67931365966797 L 3.000004291534424 51.83704376220703 M 4.195861947664525e-06 55.98469924926758 L 4.195861947664525e-06 38.36408615112305 C 5.849184036254883 36.79624938964844 8.944364547729492 36.24896621704102 12.74651432037354 34.91739654541016 C 13.43103408813477 29.14919853210449 13.07392406463623 30.70066833496094 13.46145439147949 27.33510780334473 L 14.49339389801025 13.66766738891602 L 8.637474060058594 14.15963745117188 L 8.578564643859863 16.92813682556152 L 0.02173419669270515 16.92813682556152 L 0.02173419669270515 14.88346767425537 L 0.02173419669270515 -2.282714831380872e-06 L 26.77514457702637 -2.282714831380872e-06 L 25.72338485717773 12.72421741485596 L 25.62411499023438 12.73255729675293 L 24.34565353393555 29.43386840820313 C 23.71184349060059 37.81395721435547 22.99907493591309 46.03818893432617 22.60357475280762 49.32759857177734 C 19.35555458068848 50.50258636474609 5.752844333648682 53.87027740478516 4.195861947664525e-06 55.98469924926758 Z" stroke="none" fill="#4961b7"/>
    </g>
  </g>
</svg>
