<svg id="cof_orange_hex" xmlns="http://www.w3.org/2000/svg" width="99.801" height="98.054" viewBox="0 0 99.801 98.054">
  <path id="Path_26" data-name="Path 26" d="M170.668,119.893c0,27.078-22.339,49.028-49.9,49.028s-49.9-21.95-49.9-49.028,22.342-49.026,49.9-49.026S170.668,92.816,170.668,119.893Z" transform="translate(-70.867 -70.867)" fill="#ff936d"/>
  <path id="Path_27" data-name="Path 27" d="M115.427,148.686a6.417,6.417,0,1,1-6.418-6.3A6.362,6.362,0,0,1,115.427,148.686Zm36.5,30.65a6.481,6.481,0,0,0,8.763,2.307,6.245,6.245,0,0,0,2.348-8.612,6.476,6.476,0,0,0-8.762-2.3A6.242,6.242,0,0,0,151.928,179.336Zm11.11-54.994a6.239,6.239,0,0,0-2.348-8.609,6.478,6.478,0,0,0-8.763,2.306,6.242,6.242,0,0,0,2.348,8.61A6.476,6.476,0,0,0,163.039,124.342Zm-21.713,6.369A18.17,18.17,0,0,1,159.549,147.1l9.285-.144a26.794,26.794,0,0,0-8.1-17.486,9.151,9.151,0,0,1-7.769-.592,8.853,8.853,0,0,1-4.406-6.322,28.108,28.108,0,0,0-19.464,1.858l4.518,7.971A18.53,18.53,0,0,1,141.326,130.711Zm-18.3,17.975a17.861,17.861,0,0,1,7.78-14.708l-4.767-7.829a27.146,27.146,0,0,0-11.371,15.63,8.77,8.77,0,0,1,0,13.819,27.157,27.157,0,0,0,11.371,15.631l4.767-7.829A17.867,17.867,0,0,1,123.029,148.686Zm18.3,17.978a18.5,18.5,0,0,1-7.709-1.671l-4.518,7.971a28.121,28.121,0,0,0,19.464,1.859,8.841,8.841,0,0,1,4.406-6.321,9.151,9.151,0,0,1,7.769-.592,26.8,26.8,0,0,0,8.1-17.488l-9.285-.141A18.172,18.172,0,0,1,141.326,166.664Z" transform="translate(-91.424 -99.66)" fill="#fff"/>
</svg>
