<svg xmlns="http://www.w3.org/2000/svg" width="99.8" height="98.054" viewBox="0 0 99.8 98.054">
  <path id="icons8-git" d="M51.9,6.263a4.6,4.6,0,0,1,3.248,1.322L96.116,47.836a4.463,4.463,0,0,1,0,6.384L55.148,94.47a4.652,4.652,0,0,1-6.5,0L7.684,54.218a4.463,4.463,0,0,1,0-6.384L34.413,21.573l4.934,4.847a12.628,12.628,0,0,0,6.044,14.348V61.3a12.719,12.719,0,0,0-6.509,11.046,13.019,13.019,0,0,0,26.035,0A12.719,12.719,0,0,0,58.409,61.3V45.148l2.634,2.588A12.6,12.6,0,0,0,64.39,60.07a13.183,13.183,0,0,0,18.411,0,12.647,12.647,0,0,0,0-18.087,12.986,12.986,0,0,0-9.162-3.728,13.311,13.311,0,0,0-3.389.439l-5.8-5.7a12.6,12.6,0,0,0-3.348-12.334,12.986,12.986,0,0,0-9.162-3.728,13.311,13.311,0,0,0-3.389.439L43.619,12.53l5.033-4.945A4.6,4.6,0,0,1,51.9,6.263M51.9,2a8.989,8.989,0,0,0-6.318,2.571l-8.1,7.959,10.032,9.857A8.845,8.845,0,0,1,51.941,21.2a8.661,8.661,0,0,1,6.094,2.479,8.4,8.4,0,0,1,1.317,10.338L69.209,43.7a8.845,8.845,0,0,1,4.428-1.185A8.661,8.661,0,0,1,79.731,45a8.422,8.422,0,0,1,0,12.059,8.783,8.783,0,0,1-12.271,0,8.4,8.4,0,0,1-1.317-10.338l-9.856-9.684a8.663,8.663,0,0,1-2.215.9V64.117a8.68,8.68,0,1,1-4.339,0V37.933a8.638,8.638,0,0,1-3.966-2.191A8.4,8.4,0,0,1,44.45,25.4L34.413,15.544,4.617,44.82a8.669,8.669,0,0,0,0,12.412L45.582,97.482a9.046,9.046,0,0,0,12.636,0L99.184,57.234a8.669,8.669,0,0,0,0-12.412L58.218,4.571A8.989,8.989,0,0,0,51.9,2Z" transform="translate(-2 -2)" fill="#ebebeb"/>
</svg>
