<svg id="icons8-python" xmlns="http://www.w3.org/2000/svg" width="96.581" height="94.891" viewBox="0 0 96.581 94.891">
  <path id="Path_61" data-name="Path 61" d="M50.625,4c-16.53,0-21.647,7.7-21.647,12.7v8.566H50.625v6.544h-33.7C10.358,31.813,4,36.484,4,49.81s6.358,18,12.929,18h12.5V58.139A8.429,8.429,0,0,1,37.91,49.81H63.342c4.663,0,8.932-3.748,8.932-8.329V16.7C72.273,11.5,67.156,4,50.625,4Z" transform="translate(-2.335 -2.364)" fill="#85cbf8"/>
  <path id="Path_62" data-name="Path 62" d="M40.647,84.806c16.53,0,21.193-7.7,21.193-12.7V63.537H40.647V56.993h33.7c6.571,0,12.929-4.671,12.929-18S80.915,21,74.344,21H62.295v9.667c0,4.581-4.27,8.329-8.932,8.329H27.932C23.27,39,19,42.745,19,47.326V72.1C19,77.1,24.117,84.806,40.647,84.806Z" transform="translate(7.643 8.449)" fill="#f9dd8f"/>
  <path id="Path_63" data-name="Path 63" d="M28.163,9a4.091,4.091,0,1,0,4.163,4.09A4.127,4.127,0,0,0,28.163,9ZM48.145,76.078a4.091,4.091,0,1,0,4.163,4.09A4.127,4.127,0,0,0,48.145,76.078Z" transform="translate(10.969 0.816)" fill="#8d6c9e"/>
  <path id="Path_64" data-name="Path 64" d="M4,39c0,13.326,6.358,18,12.929,18H27.418a8.255,8.255,0,0,0-8.326-8.18H16.929c-3.394,0-4.6-5.072-4.6-9.816s1.209-9.816,4.586-9.816l27.114.051h.017a8.254,8.254,0,0,0,8.326-8.164c0-.023-.007-.044-.007-.067H16.929C10.358,21,4,25.671,4,39Z" transform="translate(-2.335 8.449)" fill="#ace3ff"/>
  <path id="Path_65" data-name="Path 65" d="M79.369,39c0-13.326-6.358-18-12.929-18H55.951a8.255,8.255,0,0,0,8.326,8.18H66.44c3.394,0,4.6,5.072,4.6,9.816s-1.209,9.816-4.586,9.816l-27.114-.051h-.017A8.254,8.254,0,0,0,31,56.926c0,.023.007.044.007.067H66.44C73.011,56.993,79.369,52.322,79.369,39Z" transform="translate(15.625 8.449)" fill="#efc88e"/>
  <path id="Path_66" data-name="Path 66" d="M31.308,70.078H17.594C14.17,70.078,3,68.663,3,50.446S14.17,30.813,17.594,30.813H49.625V27.541H27.978v-10.2C27.978,12.378,32.85,3,51.29,3,69.694,3,74.6,12.013,74.6,17.338v24.78c0,5.4-4.852,9.964-10.6,9.964H38.575c-3.872,0-7.267,3.128-7.267,6.693ZM17.594,34.085c-7.159,0-11.263,5.963-11.263,16.361s4.1,16.361,11.263,16.361H27.978V58.775c0-5.4,4.852-9.965,10.6-9.965H64.008c3.87,0,7.265-3.128,7.265-6.693V17.338c0-4.111-4.208-11.066-19.982-11.066-15.806,0-19.982,7.238-19.982,11.066v6.93H52.956v9.816Z" transform="translate(-3 -3)" fill="#8d6c9f"/>
  <path id="Path_67" data-name="Path 67" d="M41.313,87.078C22.872,87.078,18,77.7,18,72.74V47.962C18,42.56,22.852,38,28.6,38H54.03c3.87,0,7.265-3.128,7.265-6.693V20H75.009C78.433,20,89.6,21.415,89.6,39.633S78.433,59.265,75.009,59.265H42.978v3.272H64.625v10.2C64.625,77.7,59.753,87.078,41.313,87.078ZM28.6,41.269c-3.872,0-7.267,3.128-7.267,6.693v24.78c0,3.827,4.176,11.065,19.982,11.065S61.295,76.568,61.295,72.74V65.81H39.647V55.993H75.009c7.159,0,11.263-5.963,11.263-16.361s-4.1-16.361-11.263-16.361H64.625V31.3c0,5.4-4.852,9.965-10.6,9.965Z" transform="translate(6.978 7.813)" fill="#8d6c9e"/>
  <path id="Path_68" data-name="Path 68" d="M38.317,42.544a1.65,1.65,0,0,1-1.665-1.636V37.636a1.665,1.665,0,0,1,3.33,0v3.272A1.65,1.65,0,0,1,38.317,42.544Zm7.6,0a1.65,1.65,0,0,1-1.665-1.636V37.636a1.665,1.665,0,0,1,3.33,0v3.272A1.65,1.65,0,0,1,45.92,42.544Zm7.6,0a1.65,1.65,0,0,1-1.665-1.636V37.636a1.665,1.665,0,0,1,3.33,0v3.272A1.65,1.65,0,0,1,53.52,42.544Zm7.6,0a1.65,1.65,0,0,1-1.665-1.636V37.636a1.665,1.665,0,0,1,3.33,0v3.272A1.651,1.651,0,0,1,61.124,42.544Z" transform="translate(19.385 17.99)" fill="#8d6c9f"/>
  <g id="Group_100" data-name="Group 100" transform="translate(19.403 34.493)">
    <path id="Path_69" data-name="Path 69" d="M16.317,30.627a1.651,1.651,0,0,1-1.665-1.636V25.719a1.665,1.665,0,0,1,3.33,0v3.272A1.649,1.649,0,0,1,16.317,30.627Zm7.6,0a1.651,1.651,0,0,1-1.665-1.636V25.719a1.665,1.665,0,0,1,3.33,0v3.272A1.649,1.649,0,0,1,23.919,30.627Zm7.6,0a1.651,1.651,0,0,1-1.665-1.636V25.719a1.665,1.665,0,0,1,3.33,0v3.272A1.65,1.65,0,0,1,31.522,30.627Zm7.6,0a1.651,1.651,0,0,1-1.665-1.636V25.719a1.665,1.665,0,0,1,3.33,0v3.272A1.65,1.65,0,0,1,39.124,30.627Z" transform="translate(-14.652 -24.083)" fill="#8d6c9f"/>
  </g>
</svg>
