<svg id="icons8-react" xmlns="http://www.w3.org/2000/svg" width="99.8" height="91.275" viewBox="0 0 99.8 91.275">
  <path id="Path_70" data-name="Path 70" d="M50.275,41.741A8.389,8.389,0,1,1,41.888,33.5,8.31,8.31,0,0,1,50.275,41.741Z" transform="translate(8.013 3.897)" fill="#8bb7f0"/>
  <path id="Path_71" data-name="Path 71" d="M42.033,50.749a8.876,8.876,0,1,1,9.033-8.875A8.965,8.965,0,0,1,42.033,50.749Zm0-16.482a7.608,7.608,0,1,0,7.742,7.607A7.683,7.683,0,0,0,42.033,34.268Z" transform="translate(7.867 3.763)" fill="#4e7ab5"/>
  <g id="Group_101" data-name="Group 101" transform="translate(0 0)">
    <path id="Path_72" data-name="Path 72" d="M30.395,94.519a11.414,11.414,0,0,1-5.776-1.476c-2.843-1.639-4.808-4.464-5.843-8.393-1.2-4.573-1.06-10.647.414-17.595C7.3,62.9.5,56.52.5,49.508S7.3,36.118,19.188,31.962c-1.474-6.949-1.619-13.023-.415-17.6,1.035-3.93,3-6.755,5.842-8.393A11.41,11.41,0,0,1,30.391,4.5c5.472,0,12.334,3.461,19.367,9.76C56.79,7.964,63.65,4.506,69.115,4.506a11.414,11.414,0,0,1,5.776,1.476c2.839,1.637,4.806,4.456,5.841,8.382,1.2,4.572,1.06,10.647-.415,17.6C92.205,36.116,99.01,42.495,99.01,49.508S92.205,62.9,80.317,67.057c1.474,6.949,1.619,13.023.414,17.595-1.035,3.926-3,6.746-5.836,8.383a11.425,11.425,0,0,1-5.777,1.476c-5.469,0-12.331-3.459-19.362-9.748C42.723,91.059,35.863,94.519,30.395,94.519ZM23.989,68.533c-1.236,5.98-1.374,11.09-.394,14.807.676,2.569,1.847,4.35,3.484,5.293a6.553,6.553,0,0,0,3.316.816c4.232,0,9.8-2.893,15.738-8.161a95.831,95.831,0,0,1-8.639-10.258A89.831,89.831,0,0,1,23.989,68.533Zm29.39,12.753c5.933,5.263,11.506,8.153,15.738,8.155a6.569,6.569,0,0,0,3.318-.816c1.632-.941,2.8-2.718,3.475-5.283.98-3.72.843-8.828-.393-14.807a90,90,0,0,1-13.508,2.5A95.77,95.77,0,0,1,53.379,81.286Zm-9.153-9.727c1.811,2.252,3.664,4.352,5.529,6.263,1.86-1.909,3.715-4.01,5.524-6.263-1.859.09-3.711.136-5.524.136S46.088,71.649,44.226,71.559Zm-4.011-5.343c3.111.27,6.32.407,9.541.407s6.428-.137,9.534-.406c1.853-2.642,3.62-5.411,5.255-8.234,1.581-2.732,3.069-5.583,4.423-8.477-1.35-2.886-2.837-5.736-4.422-8.474-1.631-2.817-3.4-5.586-5.256-8.234-3.1-.269-6.308-.406-9.534-.406s-6.433.137-9.536.407c-1.858,2.645-3.627,5.414-5.261,8.234-1.584,2.737-3.07,5.587-4.422,8.477,1.349,2.883,2.836,5.733,4.42,8.474C36.583,60.793,38.35,63.561,40.214,66.217Zm31.351-10.65c-.88,1.706-1.793,3.38-2.725,4.988C67.9,62.18,66.9,63.81,65.866,65.418a79.928,79.928,0,0,0,8.443-1.775C73.573,61.045,72.652,58.336,71.566,55.567ZM25.195,63.642a80.438,80.438,0,0,0,8.439,1.775c-1.044-1.618-2.043-3.249-2.975-4.862s-1.843-3.277-2.722-4.984C26.856,58.327,25.936,61.034,25.195,63.642Zm49.27-14.134a96.611,96.611,0,0,1,4.624,12.649c9.23-3.3,14.934-8.118,14.934-12.649s-5.7-9.348-14.934-12.649A96.076,96.076,0,0,1,74.465,49.508ZM20.416,36.862c-9.226,3.3-14.929,8.117-14.929,12.646s5.7,9.348,14.931,12.648a96.381,96.381,0,0,1,4.62-12.645A96.382,96.382,0,0,1,20.416,36.862Zm4.777-1.487c.741,2.6,1.661,5.312,2.743,8.073.878-1.7,1.791-3.374,2.723-4.985S32.6,35.211,33.638,33.6A79.768,79.768,0,0,0,25.194,35.375ZM65.868,33.6c1.044,1.619,2.043,3.249,2.975,4.865s1.844,3.279,2.725,4.985c1.084-2.76,2-5.468,2.745-8.075A80.029,80.029,0,0,0,65.868,33.6ZM30.391,9.568a6.528,6.528,0,0,0-3.313.816c-1.636.943-2.808,2.725-3.485,5.293-.979,3.721-.842,8.829.4,14.807a89.9,89.9,0,0,1,13.51-2.5,96.126,96.126,0,0,1,8.638-10.254C40.2,12.461,34.624,9.568,30.391,9.568ZM62.01,27.985a90,90,0,0,1,13.508,2.5c1.237-5.979,1.375-11.088.394-14.808-.676-2.564-1.846-4.341-3.479-5.282a6.563,6.563,0,0,0-3.318-.816c-4.231,0-9.8,2.892-15.735,8.156A96.065,96.065,0,0,1,62.01,27.985Zm-12.255-.663c1.813,0,3.665.046,5.525.136-1.808-2.249-3.661-4.349-5.523-6.26-1.867,1.914-3.718,4.014-5.527,6.26C46.09,27.367,47.942,27.321,49.755,27.321Z" transform="translate(0.145 -3.871)" fill="#8bb7f0"/>
    <path id="Path_73" data-name="Path 73" d="M30.528,5.263c5.606,0,12.47,3.689,19.376,9.974,6.9-6.279,13.765-9.965,19.366-9.965a10.818,10.818,0,0,1,5.472,1.393c2.69,1.549,4.556,4.238,5.546,7.995,1.344,4.966,1.062,11.081-.541,17.851,11.5,3.906,18.806,10.069,18.806,17.129s-7.3,13.223-18.807,17.131c1.673,7.319,1.954,13.6.541,17.85-.991,3.755-2.856,6.446-5.543,7.995a9.456,9.456,0,0,1-5.092,1.4h-.52c-5.6,0-12.328-3.689-19.232-9.966-6.9,6.283-13.766,9.97-19.37,9.97a10.818,10.818,0,0,1-5.472-1.393c-2.692-1.553-4.56-4.246-5.549-8-1.485-4.712-1.185-10.907.541-17.85C8.548,62.862,1.248,56.7,1.248,49.64s7.3-13.222,18.8-17.129a52.184,52.184,0,0,1-1.423-10.762,27.35,27.35,0,0,1,.882-7.087c.991-3.76,2.857-6.453,5.549-8a10.8,10.8,0,0,1,5.47-1.393M23.65,31.4a89.071,89.071,0,0,1,14.325-2.684,94.93,94.93,0,0,1,9.214-10.883c-6.078-5.51-12-8.769-16.662-8.769a7.144,7.144,0,0,0-3.623.9c-1.788,1.031-3.059,2.941-3.781,5.681-1.07,4.06-.827,9.547.526,15.756m52.5,0c1.354-6.21,1.6-11.7.526-15.758C75.952,12.908,74.681,11,72.9,9.973a7.165,7.165,0,0,0-3.626-.9c-4.662,0-10.576,3.256-16.653,8.761a94.863,94.863,0,0,1,9.207,10.882A89.091,89.091,0,0,1,76.146,31.4M43.01,28.3c2.248-.136,4.5-.254,6.846-.254s4.684.119,6.932.254A88.845,88.845,0,0,0,49.9,20.433,89.274,89.274,0,0,0,43.01,28.3M49.9,67.39c3.444,0,6.742-.153,9.878-.434,1.895-2.684,3.728-5.534,5.454-8.518,1.688-2.915,3.215-5.865,4.578-8.8-1.364-2.932-2.89-5.881-4.577-8.795-1.728-2.986-3.559-5.834-5.455-8.518-3.135-.283-6.432-.436-9.878-.436s-6.744.153-9.88.435c-1.9,2.684-3.731,5.534-5.459,8.518-1.687,2.915-3.214,5.865-4.577,8.8,1.364,2.932,2.889,5.881,4.576,8.795,1.728,2.984,3.56,5.834,5.457,8.518,3.137.281,6.437.435,9.884.435m21.889-22.3a89.025,89.025,0,0,0,3.451-10.032A81.652,81.652,0,0,0,64.726,32.9q1.924,2.9,3.733,6.02,1.785,3.079,3.331,6.177m-43.784,0q1.549-3.09,3.328-6.178,1.8-3.115,3.736-6.018a81.437,81.437,0,0,0-10.514,2.164,89.343,89.343,0,0,0,3.449,10.032M78.827,63.107C88.9,59.638,94.81,54.542,94.81,49.64s-5.908-10-15.983-13.467a95.377,95.377,0,0,1-4.89,13.465,95.4,95.4,0,0,1,4.89,13.468m-57.857,0a95.172,95.172,0,0,1,4.888-13.463,95.225,95.225,0,0,1-4.889-13.467C10.9,39.645,4.99,44.74,4.99,49.64s5.907,10,15.981,13.465m43.755,3.279A81.224,81.224,0,0,0,75.239,64.22a89.632,89.632,0,0,0-3.451-10.033q-1.551,3.09-3.331,6.178-1.8,3.115-3.733,6.02m-29.659,0q-1.924-2.9-3.734-6.017-1.781-3.079-3.327-6.174A89.191,89.191,0,0,0,24.557,64.22a81.84,81.84,0,0,0,10.509,2.163M30.531,90.214c4.664,0,10.58-3.258,16.657-8.766a94.868,94.868,0,0,1-9.217-10.887,88.881,88.881,0,0,1-14.319-2.683c-1.352,6.21-1.6,11.7-.526,15.756.721,2.738,1.994,4.649,3.78,5.68a7.15,7.15,0,0,0,3.625.9m38.739-.008h0a7.165,7.165,0,0,0,3.626-.9c1.784-1.028,3.053-2.935,3.772-5.671,1.07-4.061.827-9.548-.525-15.756a88.927,88.927,0,0,1-14.323,2.683,94.905,94.905,0,0,1-9.208,10.884c6.077,5.5,11.992,8.758,16.657,8.759M49.9,78.851a89.28,89.28,0,0,0,6.889-7.868c-2.247.136-4.44.422-6.785.422s-4.749-.287-7-.422A88.945,88.945,0,0,0,49.9,78.851M30.085,4.09a10.377,10.377,0,0,0-5.642,1.462c-2.993,1.725-5.059,4.679-6.139,8.781-1.2,4.548-1.094,10.525.294,17.345C6.76,35.934,0,42.446,0,49.64S6.761,63.347,18.6,67.6c-1.388,6.82-1.492,12.8-.293,17.345,1.079,4.1,3.144,7.053,6.139,8.781a12.391,12.391,0,0,0,6.2,1.474c5.6,0,12.167-3.214,19.259-9.465,7.091,6.245,13.771,9.539,19.368,9.54a12.032,12.032,0,0,0,6.089-1.558c2.99-1.723,5.054-4.673,6.133-8.769,1.2-4.549,1.1-10.527-.293-17.345,11.84-4.257,18.6-10.769,18.6-17.965S93.039,35.933,81.2,31.677c1.39-6.821,1.492-12.8.293-17.346-1.08-4.1-3.145-7.047-6.136-8.769A12.036,12.036,0,0,0,69.269,4c-5.6,0-12.274,3.3-19.366,9.543C42.809,7.293,36.1,4.087,30.5,4.087ZM24.6,29.833a45.758,45.758,0,0,1-.984-8.129,21.586,21.586,0,0,1,.711-5.732c.632-2.4,1.707-4.049,3.192-4.906a6.031,6.031,0,0,1,3.023-.816c3.968,0,9.19,2.761,14.824,7.65A96.915,96.915,0,0,0,37.3,27.516a91.283,91.283,0,0,0-12.7,2.318ZM54.439,17.9c5.632-4.885,10.867-7.56,14.83-7.56a5.957,5.957,0,0,1,3.011.734c1.483.855,2.556,2.5,3.187,4.9,1.09,3.573.949,8.322-.272,13.861a91.1,91.1,0,0,0-12.7-2.315,97.174,97.174,0,0,0-8.06-9.615ZM45.75,26.9c1.367-1.648,2.756-3.208,4.152-4.663,1.4,1.455,2.783,3.015,4.149,4.663-1.4-.051-2.784-.076-4.15-.076s-2.753.025-4.15.076ZM40.7,33.539c3-.252,6.092-.432,9.2-.432s6.2.18,9.2.432c1.786,2.56,3.488,5.231,5.06,7.948,1.524,2.635,2.96,5.374,4.27,8.152-1.311,2.779-2.747,5.52-4.271,8.155-1.573,2.718-3.273,5.388-5.06,7.948-3,.252-6.089.591-9.2.591s-6.2-.34-9.2-.592c-1.788-2.558-3.489-5.23-5.062-7.948-1.524-2.633-2.959-5.373-4.269-8.152,1.31-2.779,2.746-5.52,4.27-8.155,1.574-2.717,3.277-5.388,5.065-7.947Zm30.934,8.525c-.685-1.291-1.387-2.558-2.1-3.791s-1.456-2.462-2.227-3.688c2.213.383,4.348.841,6.38,1.369-.583,1.985-1.27,4.029-2.053,6.11Zm-45.526-6.11c2.032-.529,4.167-.986,6.38-1.369-.772,1.226-1.517,2.46-2.228,3.687s-1.415,2.5-2.1,3.791c-.783-2.078-1.47-4.122-2.052-6.108Zm49.2,13.685a97.453,97.453,0,0,0,4.354-11.824c8.612,3.194,13.9,7.668,13.9,11.825s-5.292,8.631-13.9,11.825a97.618,97.618,0,0,0-4.354-11.826ZM20.137,61.464C11.528,58.27,6.238,53.8,6.238,49.64s5.291-8.63,13.9-11.824a97.378,97.378,0,0,0,4.353,11.825,97.545,97.545,0,0,0-4.351,11.822ZM67.307,64.7c.771-1.227,1.517-2.461,2.227-3.688s1.416-2.5,2.1-3.792c.783,2.08,1.47,4.125,2.053,6.112-2.033.526-4.168.985-6.381,1.368Zm-41.2-1.371c.583-1.985,1.269-4.028,2.051-6.106.684,1.289,1.386,2.557,2.1,3.788s1.455,2.46,2.227,3.687c-2.212-.384-4.345-.842-6.376-1.369Zm4.422,25.62a5.952,5.952,0,0,1-3.01-.734c-1.485-.857-2.559-2.506-3.19-4.905-1.037-3.607-.919-8.357.272-13.861A91.042,91.042,0,0,0,37.3,71.761a97.276,97.276,0,0,0,8.069,9.62c-5.632,4.89-10.868,7.566-14.834,7.565ZM62.5,71.764a91.284,91.284,0,0,0,12.7-2.315c1.379,6.009,1.487,10.8.271,13.86-.63,2.395-1.7,4.042-3.184,4.9a5.959,5.959,0,0,1-3.01.734v0c-3.967,0-9.2-2.675-14.834-7.557A96.883,96.883,0,0,0,62.5,71.764ZM49.9,77.051c-1.4-1.455-2.787-3.016-4.154-4.666,1.4.051,2.787.076,4.154.076s2.754-.025,4.15-.076c-1.366,1.649-2.754,3.21-4.15,4.666Z" transform="translate(0 -4.003)" fill="#4e7ab5"/>
  </g>
</svg>
