<svg id="icons8-css3" xmlns="http://www.w3.org/2000/svg" width="96.438" height="98.054" viewBox="0 0 96.438 98.054">
  <path id="Path_74" data-name="Path 74" d="M5.026,8.794l9.405,76.493A6.835,6.835,0,0,0,19.421,91l30.172,8.414a7.115,7.115,0,0,0,3.737.022l31.733-8.446a6.826,6.826,0,0,0,5.085-5.868L97.976,8.728A3.422,3.422,0,0,0,94.519,5H8.474A3.42,3.42,0,0,0,5.026,8.794Z" transform="translate(-3.278 -3.309)" fill="#7bbeeb"/>
  <path id="Path_75" data-name="Path 75" d="M75.06,5H32V99.673a7.162,7.162,0,0,0,1.872-.238l31.733-8.446a6.826,6.826,0,0,0,5.085-5.868L78.517,8.728A3.422,3.422,0,0,0,75.06,5Z" transform="translate(16.181 -3.309)" fill="#ace3ff"/>
  <path id="Path_76" data-name="Path 76" d="M52.223,102.054a8.883,8.883,0,0,1-2.38-.325L19.671,93.316a8.516,8.516,0,0,1-6.229-7.136L4.037,9.687A5.014,5.014,0,0,1,5.3,5.719,5.258,5.258,0,0,1,9.2,4H95.242A5.253,5.253,0,0,1,99.1,5.682a5.023,5.023,0,0,1,1.308,3.907L92.582,85.982a8.575,8.575,0,0,1-6.349,7.327L54.5,101.755A8.83,8.83,0,0,1,52.223,102.054ZM9.2,7.381a1.752,1.752,0,0,0-1.321.582,1.643,1.643,0,0,0-.42,1.319h0l9.405,76.493a5.121,5.121,0,0,0,3.751,4.289l30.174,8.414a5.379,5.379,0,0,0,2.817.017l31.731-8.446a5.16,5.16,0,0,0,3.825-4.4L96.987,9.249a1.661,1.661,0,0,0-.435-1.3,1.764,1.764,0,0,0-1.311-.568Z" transform="translate(-3.999 -4)" fill="#8d6c9f"/>
  <path id="Path_77" data-name="Path 77" d="M7.721,14.762A1.7,1.7,0,0,1,6,13.072V9.691a1.721,1.721,0,0,1,3.441,0v3.381A1.7,1.7,0,0,1,7.721,14.762Zm8.6,0A1.7,1.7,0,0,1,14.6,13.072V9.691a1.721,1.721,0,0,1,3.441,0v3.381A1.7,1.7,0,0,1,16.324,14.762Zm8.6,0a1.7,1.7,0,0,1-1.721-1.691V9.691a1.721,1.721,0,0,1,3.441,0v3.381A1.7,1.7,0,0,1,24.928,14.762Zm8.6,0a1.7,1.7,0,0,1-1.721-1.691V9.691a1.721,1.721,0,0,1,3.441,0v3.381A1.7,1.7,0,0,1,33.531,14.762Zm8.6,0a1.7,1.7,0,0,1-1.721-1.691V9.691a1.721,1.721,0,0,1,3.441,0v3.381A1.7,1.7,0,0,1,42.135,14.762Zm8.6,0a1.7,1.7,0,0,1-1.721-1.691V9.691a1.721,1.721,0,0,1,3.441,0v3.381A1.7,1.7,0,0,1,50.738,14.762Zm8.6,0a1.7,1.7,0,0,1-1.721-1.691V9.691a1.721,1.721,0,0,1,3.441,0v3.381A1.7,1.7,0,0,1,59.342,14.762Zm8.6,0a1.7,1.7,0,0,1-1.721-1.691V9.691a1.721,1.721,0,0,1,3.441,0v3.381A1.7,1.7,0,0,1,67.945,14.762Zm8.6,0a1.7,1.7,0,0,1-1.721-1.691V9.691a1.721,1.721,0,0,1,3.441,0v3.381A1.7,1.7,0,0,1,76.549,14.762Zm8.6,0a1.7,1.7,0,0,1-1.721-1.691V9.691a1.721,1.721,0,0,1,3.441,0v3.381A1.7,1.7,0,0,1,85.152,14.762Zm8.6,0a1.7,1.7,0,0,1-1.721-1.691V9.691a1.721,1.721,0,0,1,3.441,0v3.381A1.7,1.7,0,0,1,93.755,14.762ZM64.5,87.13a1.715,1.715,0,0,1-1.659-1.248,1.687,1.687,0,0,1,1.21-2.074l3.441-.916a1.721,1.721,0,0,1,2.111,1.188,1.687,1.687,0,0,1-1.21,2.074l-3.441.916A1.742,1.742,0,0,1,64.5,87.13ZM50.779,90.844,41.663,88.3a1.684,1.684,0,0,1-1.184-2.088A1.717,1.717,0,0,1,42.6,85.05l8.2,2.286,6.37-1.694a1.718,1.718,0,0,1,2.111,1.188,1.686,1.686,0,0,1-1.21,2.074Z" transform="translate(-2.558 -1.238)" fill="#8d6c9f"/>
  <path id="Path_78" data-name="Path 78" d="M18.022,34.834l2.13,3.824,3.892,2.093-3.892,2.093-2.13,3.824-2.13-3.824L12,40.751l3.892-2.093Zm55.066,28.74L74.6,66.3,77.386,67.8,74.6,69.285l-1.507,2.742-1.535-2.742L68.783,67.8l2.77-1.508ZM81.7,23l.914,1.626,1.66.906-1.662.894L81.7,28.072l-.926-1.645-1.662-.894,1.662-.906Z" transform="translate(1.767 9.121)" fill="#fff8f8"/>
  <path id="Path_79" data-name="Path 79" d="M69.372,17H17.72a1.7,1.7,0,0,0-1.7,1.953l1.313,8.191H59.661l-1.22,10.144H31.486V47.431H57.221L55.67,60.321,43.693,63.909l-10.577-3.52-.764-4.769a1.713,1.713,0,0,0-1.7-1.427H23.684a1.7,1.7,0,0,0-1.7,1.954l1.745,10.886a1.672,1.672,0,0,0,1.132,1.319L43.02,74.394a1.694,1.694,0,0,0,1.019.015l20.034-6a1.672,1.672,0,0,0,1.189-1.4l4.975-41.36.817-6.794A1.674,1.674,0,0,0,69.372,17Z" transform="translate(4.65 4.978)" fill="#faefde"/>
  <path id="Path_80" data-name="Path 80" d="M44.276,76.861a3.429,3.429,0,0,1-1.074-.172L25.032,70.643a3.361,3.361,0,0,1-2.28-2.654L21.006,57.1a3.337,3.337,0,0,1,.783-2.722,3.466,3.466,0,0,1,2.617-1.183h6.969a3.408,3.408,0,0,1,3.4,2.857l.6,3.757,9.068,3.016,10.374-3.106,1.187-9.907h-23.8a1.7,1.7,0,0,1-1.721-1.691V37.978a1.7,1.7,0,0,1,1.721-1.691H57.632l.814-6.762H18.055a1.713,1.713,0,0,1-1.7-1.429L15.042,19.9a3.335,3.335,0,0,1,.783-2.72A3.466,3.466,0,0,1,18.442,16H70.1a3.448,3.448,0,0,1,2.552,1.126,3.319,3.319,0,0,1,.836,2.622L67.693,67.9a3.373,3.373,0,0,1-2.4,2.817l-20.034,6A3.4,3.4,0,0,1,44.276,76.861ZM24.406,56.574,26.152,67.46l18.141,6.024,20-6,5.77-48.1H18.442l1.084,6.762H60.382a1.727,1.727,0,0,1,1.285.568,1.671,1.671,0,0,1,.423,1.32l-1.22,10.144a1.709,1.709,0,0,1-1.709,1.493H33.928v6.762H57.942A1.73,1.73,0,0,1,59.227,47a1.671,1.671,0,0,1,.423,1.32L58.1,61.21A1.7,1.7,0,0,1,56.9,62.628L44.918,66.216a1.723,1.723,0,0,1-1.053-.015l-10.577-3.52a1.7,1.7,0,0,1-1.149-1.339l-.766-4.767Z" transform="translate(3.928 4.287)" fill="#8d6c9f"/>
</svg>
