<svg id="icons8-github" xmlns="http://www.w3.org/2000/svg" width="99.8" height="98.054" viewBox="0 0 99.8 98.054">
  <path id="Path_46" data-name="Path 46" d="M53.9,4C26.34,4,4,25.949,4,53.027A49.126,49.126,0,0,0,38.481,99.642H69.319A49.126,49.126,0,0,0,103.8,53.027C103.8,25.949,81.46,4,53.9,4Z" transform="translate(-4 -4)" fill="#616161"/>
  <path id="Path_47" data-name="Path 47" d="M62.443,86.553,62.418,72.34a14.312,14.312,0,0,0-1.6-6.587C74.89,62.976,81.739,54.8,81.739,40.805a22.687,22.687,0,0,0-4.93-14.512,14.336,14.336,0,0,0,.549-2.4,17.745,17.745,0,0,0-.482-7.315l-.067-.284a26.6,26.6,0,0,0-1.043-3.4l-.277-.691-.277-.691-.753-.078-.756-.078s-.5-.051-1.25-.051a13.256,13.256,0,0,0-4.059.591l-.489.162a27.724,27.724,0,0,0-6.03,2.621c-.714.419-1.495.9-2.33,1.432a51.222,51.222,0,0,0-12.1-1.387,51.467,51.467,0,0,0-12.2,1.4c-.846-.539-1.632-1.022-2.35-1.444a27.845,27.845,0,0,0-6.03-2.621l-.489-.162a13.221,13.221,0,0,0-4.057-.591c-.753,0-1.25.051-1.25.051l-.753.078-.749.076-.279.689-.282.694a26.4,26.4,0,0,0-1.045,3.41l-.067.282a17.732,17.732,0,0,0-.482,7.312,14.446,14.446,0,0,0,.574,2.478,22.789,22.789,0,0,0-4.83,14.438c0,13.96,6.856,22.131,20.951,24.93a14.559,14.559,0,0,0-1.128,3,8.219,8.219,0,0,1-1.342.336A12.6,12.6,0,0,1,29.8,69.2a8.3,8.3,0,0,1-3.58-.635,13.925,13.925,0,0,1-3.528-3.721c-1.155-1.655-2.957-3.819-4.97-4.724a13.053,13.053,0,0,0-5.062-1.231,6.022,6.022,0,0,0-.938.069,4.07,4.07,0,0,0-2.954,1.912,3.17,3.17,0,0,0-.22,2.8,7.345,7.345,0,0,0,3.351,3.076,9.554,9.554,0,0,1,2.67,2.719,13.892,13.892,0,0,1,1.2,2.432c.217.527.457,1.1.781,1.794,1.173,2.505,4.833,4.716,5.247,4.959,2.011,1.184,5.392,1.564,7.877,1.674l.307.007h0a24.543,24.543,0,0,0,2.5-.174v6.405c.005,1.3-1.34,1.591-3.119,1.564l1.365.451a49.91,49.91,0,0,0,33.441,0l1.754-.642C64.152,87.881,62.458,87.6,62.443,86.553Z" transform="translate(2.452 6.589)" opacity="0.05"/>
  <path id="Path_48" data-name="Path 48" d="M63.623,87.791c-1.013.115-3.2-.267-3.2-1.949V71.614a13.184,13.184,0,0,0-2.335-7.482C72.85,61.787,79.746,54.1,79.746,40.08a21.475,21.475,0,0,0-5.087-14.272A12.939,12.939,0,0,0,75.377,23a16.535,16.535,0,0,0-.459-6.866l-.067-.284a24.878,24.878,0,0,0-.991-3.233l-.277-.691-.756-.078s-.444-.047-1.12-.047a11.915,11.915,0,0,0-3.658.527l-.489.162A26.826,26.826,0,0,0,61.77,15c-.828.485-1.751,1.057-2.747,1.7A49.54,49.54,0,0,0,46.7,15.213a49.834,49.834,0,0,0-12.423,1.5c-1.005-.65-1.934-1.223-2.767-1.714a26.7,26.7,0,0,0-5.791-2.51l-.489-.162a11.981,11.981,0,0,0-3.658-.527c-.676,0-1.12.047-1.12.047l-.753.078-.282.694a24.877,24.877,0,0,0-.991,3.233l-.067.284A16.438,16.438,0,0,0,17.9,23a12.925,12.925,0,0,0,.744,2.878A21.56,21.56,0,0,0,13.661,40.08c0,13.98,6.9,21.665,21.672,24.038A13.221,13.221,0,0,0,33.3,68.932a10.675,10.675,0,0,1-2.223.628,13.8,13.8,0,0,1-2.031.147,9.448,9.448,0,0,1-4.217-.806,15.185,15.185,0,0,1-3.922-4.082c-.873-1.25-2.612-3.474-4.461-4.3a11.77,11.77,0,0,0-4.543-1.12,4.844,4.844,0,0,0-.744.054A2.832,2.832,0,0,0,9.1,60.759,1.966,1.966,0,0,0,8.95,62.5c.447,1.1,2.1,2.084,2.792,2.456A10.673,10.673,0,0,1,14.871,68.1a15.261,15.261,0,0,1,1.3,2.616c.212.512.444,1.071.758,1.745.826,1.763,3.376,3.608,4.753,4.42,1.881,1.108,5.374,1.417,7.29,1.5l.277,0a33.894,33.894,0,0,0,3.73-.331v7.788c0,1.91-2.473,1.986-3.079,1.986-.077,0,1.255.451,1.255.451a50.363,50.363,0,0,0,31.1,0S63.7,87.781,63.623,87.791Z" transform="translate(3.195 7.315)" opacity="0.07"/>
  <path id="Path_49" data-name="Path 49" d="M77.75,39.354a20.359,20.359,0,0,0-5.282-14.041,11.57,11.57,0,0,0,.926-3.209,15.734,15.734,0,0,0-.506-6.7,24.224,24.224,0,0,0-.936-3.064,11.775,11.775,0,0,0-4.249.422,27.506,27.506,0,0,0-6.043,2.567c-1.13.662-2.268,1.387-3.169,1.976a47.844,47.844,0,0,0-12.537-1.588,48.265,48.265,0,0,0-12.642,1.6c-.9-.591-2.048-1.321-3.186-1.988a27.506,27.506,0,0,0-6.043-2.567,11.775,11.775,0,0,0-4.249-.422A24.223,24.223,0,0,0,18.9,15.4a15.733,15.733,0,0,0-.506,6.7,11.493,11.493,0,0,0,.953,3.268,20.4,20.4,0,0,0-5.185,13.983c0,14.666,8.064,21.361,22.757,23.129a12.1,12.1,0,0,0-3.251,6.6,13,13,0,0,1-3.149.966c-2.754.409-5.666,0-7.068-.816a16.277,16.277,0,0,1-4.314-4.444,11.96,11.96,0,0,0-3.95-3.881,9.314,9.314,0,0,0-4.573-.971c-.988.154-1.455.868-1.248,1.38A5.627,5.627,0,0,0,11.6,63.15a11.841,11.841,0,0,1,3.588,3.574,33.661,33.661,0,0,1,2.131,4.493c.621,1.329,2.747,2.988,4.261,3.881,1.3.767,3.9,1.2,6.707,1.329a40.674,40.674,0,0,0,5.2-.5v9.193A2.545,2.545,0,0,1,30.512,87.6a50.591,50.591,0,0,0,30.886,0,2.547,2.547,0,0,1-2.969-2.486V70.889A12.072,12.072,0,0,0,55,62.493C69.588,60.772,77.75,54.236,77.75,39.354ZM14.114,62.38c-.384-.194-.591-.552-.462-.8s.549-.3.933-.105.591.552.462.8S14.5,62.574,14.114,62.38Zm3.024,1.851c-.2.216-.636.147-.971-.152s-.442-.718-.24-.934.636-.147.971.152S17.34,64.015,17.138,64.231Zm1.881,3.064c-.254.176-.686.012-.963-.368s-.294-.833-.04-1.01.686-.012.963.368S19.274,67.118,19.02,67.295Zm2.7,2.307c-.172.275-.661.287-1.09.029s-.639-.689-.467-.963.661-.287,1.09-.029S21.894,69.327,21.722,69.6Zm2.555,2.258c-.531-.064-.926-.39-.881-.728s.509-.559,1.038-.5.926.39.881.728S24.808,71.923,24.277,71.859Zm4.119.586c-.566-.032-1.008-.351-.986-.708s.5-.625,1.065-.593,1.008.351.986.708S28.962,72.477,28.4,72.445Zm3.887-.382c-.6,0-1.093-.309-1.093-.689s.489-.689,1.093-.689,1.093.309,1.093.689S32.884,72.063,32.283,72.063Z" transform="translate(3.947 8.04)" fill="#fff"/>
</svg>
