<svg xmlns="http://www.w3.org/2000/svg" width="27.642" height="33.318" viewBox="0 0 27.642 33.318">
  <path id="Cat_2_" d="M32.379,43.318H23.494V38.876c-6.108,1.333-7.774-3.332-7.774-3.332A13.745,13.745,0,0,0,13.5,32.212c-2.221-1.333,0-1.111,0-1.111a4.108,4.108,0,0,1,3.332,2.221,5.265,5.265,0,0,0,6.664,2.221A5.22,5.22,0,0,1,24.6,32.212c-4.887-.555-8.885-3.332-8.885-8.885s1.111-6.664,2.221-7.774a7.181,7.181,0,0,1,0-5.553s2.221,0,4.442,3.332c1.111-1.111,4.442-1.111,5.553-1.111s4.442,0,5.553,1.111C35.71,10,37.932,10,37.932,10a6.678,6.678,0,0,1,0,5.553c1.111,1.111,2.221,2.221,2.221,7.774s-4,8.33-8.885,8.885a5.71,5.71,0,0,1,1.111,3.332v7.774Z" transform="translate(-12.511 -10)" fill="#fff"/>
</svg>
