<svg id="shapes" xmlns="http://www.w3.org/2000/svg" width="37.66" height="35.998" viewBox="0 0 37.66 35.998">
  <rect id="rect11" width="8.074" height="24.287" transform="translate(0.476 11.711)" fill="#fff"/>
  <path id="path13-0" d="M60.567,54.28C57.8,54.28,56,56.1,56,58.477a4.179,4.179,0,0,0,4.461,4.2h.052c2.815,0,4.568-1.866,4.568-4.2A4.2,4.2,0,0,0,60.567,54.28Z" transform="translate(-56 -54.28)" fill="#fff"/>
  <path id="path15" d="M209.612,172.6a8.018,8.018,0,0,0-7.275,4.01v-3.439h-8.072c.107,2.278,0,24.287,0,24.287h8.072V183.9a5.518,5.518,0,0,1,.266-1.971,4.418,4.418,0,0,1,4.142-2.952c2.92,0,4.089,2.228,4.089,5.491v12.995h8.072V183.531C218.906,176.071,214.923,172.6,209.612,172.6Z" transform="translate(-181.247 -161.461)" fill="#fff"/>
</svg>
