<svg id="icons8-adobe-xd" xmlns="http://www.w3.org/2000/svg" width="99.8" height="98.054" viewBox="0 0 99.8 98.054">
  <path id="Path_28" data-name="Path 28" d="M10.838,7H99.123a3.8,3.8,0,0,1,3.838,3.771v86.74a3.8,3.8,0,0,1-3.838,3.771H10.838A3.8,3.8,0,0,1,7,97.512V10.771A3.8,3.8,0,0,1,10.838,7Z" transform="translate(-5.081 -5.114)" fill="#f7a1c8"/>
  <path id="Path_29" data-name="Path 29" d="M14.677,32H95.285a7.611,7.611,0,0,1,7.677,7.543V73.485A5.708,5.708,0,0,1,97.2,79.142H12.758A5.708,5.708,0,0,1,7,73.485V39.543A7.611,7.611,0,0,1,14.677,32Z" transform="translate(-5.081 17.027)" fill="#ef8ebe"/>
  <path id="Path_30" data-name="Path 30" d="M16.838,13H82.093a3.8,3.8,0,0,1,3.838,3.771V80.884a3.8,3.8,0,0,1-3.838,3.771H16.838A3.8,3.8,0,0,1,13,80.884V16.771A3.8,3.8,0,0,1,16.838,13Z" transform="translate(0.435 0.2)" fill="#ce6ba4"/>
  <path id="Path_31" data-name="Path 31" d="M84.931,12H15.838A3.8,3.8,0,0,0,12,15.771V83.655a3.8,3.8,0,0,0,3.838,3.771H21.6a1.886,1.886,0,1,0,0-3.771H15.838V15.771H84.931V83.655H79.173a1.886,1.886,0,1,0,0,3.771h5.758a3.8,3.8,0,0,0,3.838-3.771V15.771A3.8,3.8,0,0,0,84.931,12Z" transform="translate(-0.485 -0.686)" fill="#8d6c9f"/>
  <path id="Path_32" data-name="Path 32" d="M100.043,6H11.758A5.708,5.708,0,0,0,6,11.657V98.4a5.708,5.708,0,0,0,5.758,5.657h88.285A5.708,5.708,0,0,0,105.8,98.4h0V11.657A5.708,5.708,0,0,0,100.043,6Zm1.919,92.4a1.9,1.9,0,0,1-1.919,1.886H11.758A1.9,1.9,0,0,1,9.838,98.4V11.657a1.9,1.9,0,0,1,1.919-1.886h88.285a1.9,1.9,0,0,1,1.919,1.886Z" transform="translate(-6 -6)" fill="#8d6c9f"/>
  <path id="Path_33" data-name="Path 33" d="M32.515,48A1.9,1.9,0,0,0,30.6,49.886v3.771a1.92,1.92,0,0,0,3.838,0V49.886A1.9,1.9,0,0,0,32.515,48Zm9.6,0a1.9,1.9,0,0,0-1.919,1.886v3.771a1.92,1.92,0,0,0,3.838,0V49.886A1.9,1.9,0,0,0,42.112,48Zm9.6,0a1.9,1.9,0,0,0-1.919,1.886v3.771a1.92,1.92,0,0,0,3.838,0V49.886A1.9,1.9,0,0,0,51.708,48Zm9.6,0a1.9,1.9,0,0,0-1.919,1.886v3.771a1.92,1.92,0,0,0,3.838,0V49.886A1.9,1.9,0,0,0,61.3,48ZM22.919,48A1.9,1.9,0,0,0,21,49.886v3.771a1.92,1.92,0,0,0,3.838,0V49.886A1.9,1.9,0,0,0,22.919,48Z" transform="translate(7.789 31.198)" fill="#8d6c9f"/>
  <path id="Path_34" data-name="Path 34" d="M43.781,55.972l-9.1-15.24,8.817-14.823a1.865,1.865,0,0,0-.693-2.578,1.936,1.936,0,0,0-2.624.681L32.451,37,24.671,23.976a1.934,1.934,0,0,0-2.624-.681,1.866,1.866,0,0,0-.695,2.578l8.878,14.863L21.262,55.813a1.865,1.865,0,0,0,.693,2.578,1.934,1.934,0,0,0,2.624-.683l7.878-13.245,8.007,13.4a1.934,1.934,0,0,0,2.624.681A1.863,1.863,0,0,0,43.781,55.972Z" transform="translate(7.789 9.089)" fill="#faefde"/>
  <path id="Path_35" data-name="Path 35" d="M48.394,24a1.9,1.9,0,0,0-1.919,1.886v9.428H42.636a7.618,7.618,0,0,0-7.677,7.543V50.4a7.618,7.618,0,0,0,7.677,7.543h1.919a5.771,5.771,0,0,0,2.47-.569,1.922,1.922,0,0,0,3.288-1.316V25.886A1.9,1.9,0,0,0,48.394,24ZM46.474,52.285a1.9,1.9,0,0,1-1.919,1.886H42.636A3.809,3.809,0,0,1,38.8,50.4V42.857a3.809,3.809,0,0,1,3.838-3.771h3.838Z" transform="translate(20.62 9.942)" fill="#faefde"/>
</svg>
