<svg xmlns="http://www.w3.org/2000/svg" width="34.998" height="34.998" viewBox="0 0 34.998 34.998">
  <path id="Path_94" data-name="Path 94" d="M136,118.5A17.5,17.5,0,1,0,153.5,136,17.522,17.522,0,0,0,136,118.5Zm11.288,8.54a14.5,14.5,0,0,1,3.105,8.094,26.324,26.324,0,0,0-9.838-.178c-.356-.84-.725-1.642-1.094-2.405A20.935,20.935,0,0,0,147.287,127.039Zm-2.163-2.2a17.822,17.822,0,0,1-7.089,4.976c-.305-.547-.611-1.056-.9-1.54a49.15,49.15,0,0,0-4.505-6.3,14.065,14.065,0,0,1,3.373-.407A14.425,14.425,0,0,1,145.124,124.838Zm-15.6-1.718a44.851,44.851,0,0,1,5.549,7.738,46.362,46.362,0,0,1-13.045,1.578A14.5,14.5,0,0,1,129.521,123.12ZM121.58,136c0-.165,0-.331.013-.5.382.013.827.013,1.324.013a51.843,51.843,0,0,0,8.489-.687,39.253,39.253,0,0,0,5.154-1.209c.331.674.662,1.374.98,2.1a22.733,22.733,0,0,0-7.038,3.831,25.468,25.468,0,0,0-5.345,5.943A14.324,14.324,0,0,1,121.58,136Zm5.88,11.607a22.465,22.465,0,0,1,4.963-5.651,19.317,19.317,0,0,1,6.249-3.385,48.473,48.473,0,0,1,2.609,10.856A14.235,14.235,0,0,1,136,150.431,14.407,14.407,0,0,1,127.459,147.606Zm16.723.267a50.191,50.191,0,0,0-2.494-10,23.969,23.969,0,0,1,8.552.382A14.449,14.449,0,0,1,144.182,147.873Z" transform="translate(-118.5 -118.5)" fill="#fff"/>
</svg>
