<svg xmlns="http://www.w3.org/2000/svg" width="68.747" height="78.617" viewBox="0 0 68.747 78.617">
  <g id="Group_185" data-name="Group 185" transform="translate(-138.707 -26.406)">
    <path id="Path_12" data-name="Path 12" d="M-451.344-742.061l31.837,18.323v11.644l-7.717-4.55v-2.184l-15.97-9.191v4.914l23.687,13.74v23.386l-32.286-19.064v-11.192l7.871,5.05v1.82l16.516,9.919v-5.6l-23.886-14.423Z" transform="translate(591 790.389)" fill="#6380e5" stroke="#6380e5" stroke-linecap="round" stroke-linejoin="round" stroke-width="1"/>
    <path id="Path_13" data-name="Path 13" d="M-415.761-783.677l-31.8,18.791,31.8,18.927L-383-764.7l-13.013-7.416-7.962,5,4.277,2.411-16.061,9.282-15.56-9.282,15.56-9.282,3.867,2.457,7.917-4.914Z" transform="translate(588.955 810.514)" fill="#b9e2b6" stroke="#b9e2b6" stroke-linecap="round" stroke-linejoin="bevel" stroke-width="1"/>
    <path id="Subtraction_1" data-name="Subtraction 1" d="M-525,87.214v0l.045-37.9,32.031-18.427V68.423l-7.781,4.686V63.373l-16.151,9.736v9.327L-525,87.213Zm23.98-42.426h0l-15.994,9.485-.246,9.554,16.24-9.239v-9.8Z" transform="translate(699.877 17.379)" fill="#4961b7" stroke="#4961b7" stroke-linejoin="bevel" stroke-width="1"/>
  </g>
</svg>
