<svg xmlns="http://www.w3.org/2000/svg" width="92.4" height="105.766" viewBox="0 0 92.4 105.766">
  <g id="Group_177" data-name="Group 177" transform="translate(-138.707 -26.406)">
    <path id="Path_12" data-name="Path 12" d="M-451.187-742.061l42.953,24.72v15.71l-10.412-6.138v-2.946l-21.546-12.4v6.63l31.957,18.538V-666.4l-43.559-25.72v-15.1l10.619,6.814v2.455l22.282,13.382v-7.55l-32.226-19.458Z" transform="translate(591 797.893)" fill="#6380e5" stroke="#6380e5" stroke-linecap="round" stroke-linejoin="round" stroke-width="1"/>
    <path id="Path_13" data-name="Path 13" d="M-404.657-783.677l-42.907,25.351,42.907,25.536,44.2-25.29-17.556-10.006-10.742,6.752,5.77,3.254-21.668,12.522L-425.65-758.08l20.993-12.522,5.218,3.315,10.681-6.63Z" transform="translate(589.717 810.514)" fill="#b9e2b6" stroke="#b9e2b6" stroke-linecap="round" stroke-linejoin="bevel" stroke-width="1"/>
    <path id="Path_14" data-name="Path 14" d="M-339.445-742.181v50.642l-10.5,6.323v-13.136l-21.791,13.136v12.584l-10.988,6.445.061-51.133Z" transform="translate(570.052 797.929)" fill="#4961b7" stroke="#4961b7" stroke-linejoin="bevel" stroke-width="1"/>
    <path id="Path_15" data-name="Path 15" d="M-345.82-715.262v13.221l-21.909,12.466.331-12.891Z" transform="translate(565.506 789.766)" fill="#1f212a" stroke="#4961b7" stroke-linejoin="round" stroke-width="1"/>
  </g>
</svg>
