<svg xmlns="http://www.w3.org/2000/svg" width="43.34" height="49.457" viewBox="0 0 43.34 49.457">
  <g id="Group_61" data-name="Group 61" transform="translate(-138.707 -26.406)">
    <path id="Path_12" data-name="Path 12" d="M-451.512-742.061l19.9,11.451v7.277l-4.823-2.843v-1.365l-9.981-5.744v3.071l14.8,8.587v14.616l-20.178-11.914v-6.995l4.919,3.156v1.137l10.322,6.2v-3.5l-14.928-9.014Z" transform="translate(591 782.329)" fill="#6380e5" stroke="#6380e5" stroke-linecap="round" stroke-linejoin="round" stroke-width="1"/>
    <path id="Path_13" data-name="Path 13" d="M-427.688-783.677l-19.876,11.744,19.876,11.829,20.473-11.715-8.133-4.635-4.976,3.128,2.673,1.507-10.038,5.8-9.725-5.8,9.725-5.8,2.417,1.536,4.948-3.071Z" transform="translate(588.136 810.514)" fill="#b9e2b6" stroke="#b9e2b6" stroke-linecap="round" stroke-linejoin="bevel" stroke-width="1"/>
    <path id="Path_14" data-name="Path 14" d="M-362.673-742.181v23.459l-4.862,2.929v-6.085l-10.094,6.085v5.829l-5.09,2.986.028-23.686Z" transform="translate(544.22 782.411)" fill="#4961b7" stroke="#4961b7" stroke-linejoin="bevel" stroke-width="1"/>
    <path id="Path_15" data-name="Path 15" d="M-357.58-715.262v6.125l-10.149,5.775.153-5.971Z" transform="translate(534.068 764.18)" fill="#1f212a" stroke="#4961b7" stroke-linejoin="round" stroke-width="1"/>
  </g>
</svg>
