<svg xmlns="http://www.w3.org/2000/svg" width="195" height="259" viewBox="0 0 195 259">
  <g id="Polygon_3" data-name="Polygon 3" transform="translate(195) rotate(90)" fill="#777575">
    <path d="M 203.0640411376953 194.5 L 55.93598556518555 194.5 C 53.06806945800781 194.5 50.25854110717773 194.1081390380859 47.58543014526367 193.3353424072266 C 45.02923583984375 192.5963134765625 42.59001159667969 191.5075531005859 40.33551406860352 190.0992736816406 C 35.99395751953125 187.3873291015625 32.39887237548828 183.5295257568359 29.93895721435547 178.9429168701172 C 27.47904014587402 174.3563079833984 26.25420761108398 169.2272796630859 26.39690208435059 164.1102752685547 C 26.47098541259766 161.4531402587891 26.91342926025391 158.8188629150391 27.71195602416992 156.2806396484375 C 28.5469856262207 153.6262817382813 29.77487373352051 151.0690612792969 31.36145782470703 148.6800079345703 L 104.9254837036133 37.90792083740234 C 106.3513488769531 35.7608642578125 108.0284881591797 33.82036209106445 109.9103164672852 32.14030838012695 C 111.7212600708008 30.52355766296387 113.7319259643555 29.13822555541992 115.8864822387695 28.02278137207031 C 120.0500411987305 25.86725234985352 124.7575149536133 24.72791862487793 129.4999847412109 24.72791862487793 C 134.2424774169922 24.72791862487793 138.949951171875 25.86725234985352 143.1134796142578 28.02278137207031 C 145.2680358886719 29.13822555541992 147.2787322998047 30.52355766296387 149.0896759033203 32.14030838012695 C 150.9715118408203 33.82036209106445 152.6486511230469 35.7608642578125 154.0745086669922 37.90792083740234 L 227.6385345458984 148.6800079345703 C 229.2251281738281 151.0690612792969 230.4530181884766 153.6262817382813 231.2880401611328 156.2806396484375 C 232.0865631103516 158.8188629150391 232.5290069580078 161.4531402587891 232.6030883789063 164.1102752685547 C 232.7457885742188 169.2272796630859 231.5209503173828 174.3563385009766 229.06103515625 178.9429168701172 C 226.6011199951172 183.5295257568359 223.0060729980469 187.3873291015625 218.6644897460938 190.0993041992188 C 216.4100189208984 191.5075531005859 213.9707946777344 192.5963134765625 211.4145965576172 193.3353424072266 C 208.7414855957031 194.1081390380859 205.9319610595703 194.5 203.0640411376953 194.5 Z" stroke="none"/>
    <path d="M 129.4999694824219 25.2279052734375 C 124.8371429443359 25.2279052734375 120.2091522216797 26.34791564941406 116.1163482666016 28.466796875 C 113.9989776611328 29.56300354003906 112.0229949951172 30.92440795898438 110.2433013916016 32.51329040527344 C 108.3932952880859 34.1649169921875 106.7442321777344 36.072998046875 105.3419647216797 38.18449401855469 L 31.77796936035156 148.9566192626953 C 30.21737670898438 151.3065338134766 29.00985717773438 153.8211517333984 28.18891906738281 156.4306793212891 C 27.40426635742188 158.9248199462891 26.96949768066406 161.5132904052734 26.89671325683594 164.1242065429688 C 26.75643920898438 169.1542053222656 27.96080017089844 174.1967010498047 30.37959289550781 178.7065887451172 C 32.79835510253906 183.2164916992188 36.3326416015625 187.0093841552734 40.60041809082031 189.6752319335938 C 42.815673828125 191.0590057373047 45.21249389648438 192.1288146972656 47.72425842285156 192.8549957275391 C 50.35223388671875 193.6147613525391 53.11505126953125 194 55.93597412109375 194 L 203.0640258789063 194 C 205.8849487304688 194 208.6477661132813 193.6147613525391 211.2757263183594 192.8549957275391 C 213.7875061035156 192.1288146972656 216.184326171875 191.0590057373047 218.3995971679688 189.6752319335938 C 222.6673278808594 187.0093841552734 226.2016448974609 183.2164916992188 228.6204071044922 178.7065887451172 C 231.0391998291016 174.1967010498047 232.2435607910156 169.1542053222656 232.1033020019531 164.1242065429688 C 232.0304718017578 161.5132904052734 231.5957336425781 158.9247894287109 230.8110961914063 156.4306793212891 C 229.9901428222656 153.8211517333984 228.7826232910156 151.3065338134766 227.2220306396484 148.9565887451172 L 153.6579895019531 38.18449401855469 C 152.2557373046875 36.072998046875 150.6066741943359 34.1649169921875 148.7566833496094 32.51329040527344 C 146.9769592285156 30.92440795898438 145.0010070800781 29.56300354003906 142.8836212158203 28.466796875 C 138.7908020019531 26.34791564941406 134.1628265380859 25.2279052734375 129.4999694824219 25.2279052734375 M 129.4999847412109 24.2279052734375 C 139.0284423828125 24.2279052734375 148.556884765625 28.69570922851563 154.4910278320313 37.63128662109375 L 228.0550537109375 148.4033813476563 C 241.2973480224609 168.343505859375 227.000732421875 195 203.0640258789063 195 L 55.93597412109375 195 C 31.99923706054688 195 17.70265197753906 168.343505859375 30.9449462890625 148.4033813476563 L 104.5089416503906 37.63128662109375 C 110.4430847167969 28.69570922851563 119.9715423583984 24.2279052734375 129.4999847412109 24.2279052734375 Z" stroke="none" fill="#707070"/>
  </g>
</svg>
