<svg xmlns="http://www.w3.org/2000/svg" width="113.5" height="113.263" viewBox="0 0 113.5 113.263">
  <g id="Group_191" data-name="Group 191" transform="translate(-296.5 -2869)">
    <line id="Line_4" data-name="Line 4" x2="87.237" transform="translate(298.741 2956.195)" fill="none" stroke="#b9e2b6" stroke-width="7"/>
    <line id="Line_5" data-name="Line 5" y2="8.022" transform="translate(342.36 2969.241)" fill="none" stroke="#b9e2b6" stroke-width="10"/>
    <line id="Line_6" data-name="Line 6" x2="44.621" transform="translate(319.798 2977.263)" fill="none" stroke="#b9e2b6" stroke-linecap="round" stroke-width="10"/>
    <rect id="Rectangle_83" data-name="Rectangle 83" width="47" height="71" transform="translate(363 2869)" fill="none"/>
    <g id="Group_87" data-name="Group 87" transform="translate(370 2874)">
      <g id="Subtraction_5" data-name="Subtraction 5" transform="translate(177 2941)" fill="#b9e2b6">
        <path d="M -153.9999084472656 -2883.499755859375 L -167.0003967285156 -2883.499755859375 C -172.2386474609375 -2883.499755859375 -176.5002899169922 -2887.761474609375 -176.5002899169922 -2892.999755859375 L -176.5002899169922 -2931.00048828125 C -176.5002899169922 -2936.23876953125 -172.2386474609375 -2940.500244140625 -167.0003967285156 -2940.500244140625 L -153.9999084472656 -2940.500244140625 C -148.7616424560547 -2940.500244140625 -144.5 -2936.23876953125 -144.5 -2931.00048828125 L -144.5 -2892.999755859375 C -144.5 -2887.761474609375 -148.7616424560547 -2883.499755859375 -153.9999084472656 -2883.499755859375 Z M -171 -2935.5 C -172.3784027099609 -2935.5 -173.4998168945313 -2934.378662109375 -173.4998168945313 -2933.000244140625 L -173.4998168945313 -2893.99951171875 C -173.4998168945313 -2892.62109375 -172.3784027099609 -2891.499755859375 -171 -2891.499755859375 L -150.0003051757813 -2891.499755859375 C -148.6213989257813 -2891.499755859375 -147.4995880126953 -2892.62109375 -147.4995880126953 -2893.99951171875 L -147.4995880126953 -2933.000244140625 C -147.4995880126953 -2934.378662109375 -148.6213989257813 -2935.5 -150.0003051757813 -2935.5 L -171 -2935.5 Z" stroke="none"/>
        <path d="M -153.9999084472656 -2883.999755859375 C -149.0373382568359 -2883.999755859375 -145 -2888.037109375 -145 -2892.999755859375 L -145 -2931.00048828125 C -145 -2935.962890625 -149.0373382568359 -2940.000244140625 -153.9999084472656 -2940.000244140625 L -167.0003967285156 -2940.000244140625 C -171.9629516601563 -2940.000244140625 -176.0002899169922 -2935.962890625 -176.0002899169922 -2931.00048828125 L -176.0002899169922 -2892.999755859375 C -176.0002899169922 -2888.037109375 -171.9629516601563 -2883.999755859375 -167.0003967285156 -2883.999755859375 L -153.9999084472656 -2883.999755859375 M -171 -2936 L -150.0003051757813 -2936 C -148.345703125 -2936 -146.9995880126953 -2934.654296875 -146.9995880126953 -2933.000244140625 L -146.9995880126953 -2893.99951171875 C -146.9995880126953 -2892.345458984375 -148.345703125 -2890.999755859375 -150.0003051757813 -2890.999755859375 L -171 -2890.999755859375 C -172.6540985107422 -2890.999755859375 -173.9998168945313 -2892.345458984375 -173.9998168945313 -2893.99951171875 L -173.9998168945313 -2933.000244140625 C -173.9998168945313 -2934.654296875 -172.6540985107422 -2936 -171 -2936 M -153.9999084472656 -2882.999755859375 L -167.0003967285156 -2882.999755859375 C -172.5143585205078 -2882.999755859375 -177.0002899169922 -2887.48583984375 -177.0002899169922 -2892.999755859375 L -177.0002899169922 -2931.00048828125 C -177.0002899169922 -2936.514404296875 -172.5143585205078 -2941.000244140625 -167.0003967285156 -2941.000244140625 L -153.9999084472656 -2941.000244140625 C -148.4859466552734 -2941.000244140625 -144 -2936.514404296875 -144 -2931.00048828125 L -144 -2892.999755859375 C -144 -2887.48583984375 -148.4859466552734 -2882.999755859375 -153.9999084472656 -2882.999755859375 Z M -171 -2935 C -172.1027069091797 -2935 -172.9998168945313 -2934.102783203125 -172.9998168945313 -2933.000244140625 L -172.9998168945313 -2893.99951171875 C -172.9998168945313 -2892.89697265625 -172.1027069091797 -2891.999755859375 -171 -2891.999755859375 L -150.0003051757813 -2891.999755859375 C -148.8971099853516 -2891.999755859375 -147.9995880126953 -2892.89697265625 -147.9995880126953 -2893.99951171875 L -147.9995880126953 -2933.000244140625 C -147.9995880126953 -2934.102783203125 -148.8971099853516 -2935 -150.0003051757813 -2935 L -171 -2935 Z" stroke="none" fill="#b9e2b6"/>
      </g>
      <g id="Rectangle_82" data-name="Rectangle 82" transform="translate(11 2)" fill="#fff" stroke="#b9e2b6" stroke-width="1">
        <rect width="11" height="2" rx="1" stroke="none"/>
        <rect x="0.5" y="0.5" width="10" height="1" rx="0.5" fill="none"/>
      </g>
      <g id="Path_95" data-name="Path 95" transform="translate(14 50)" fill="#1f222b">
        <path d="M 2.499999761581421 5.5 C 1.397199749946594 5.5 0.4999997615814209 4.378499984741211 0.4999997615814209 3 C 0.4999997615814209 1.621500015258789 1.397199749946594 0.5 2.499999761581421 0.5 C 3.602799654006958 0.5 4.5 1.621500015258789 4.5 3 C 4.5 4.378499984741211 3.602799654006958 5.5 2.499999761581421 5.5 Z" stroke="none"/>
        <path d="M 2.499999761581421 1 C 1.686919689178467 1 0.9999997615814209 1.915890216827393 0.9999997615814209 3 C 0.9999997615814209 4.084110260009766 1.686919689178467 5 2.499999761581421 5 C 3.313079833984375 5 3.999999761581421 4.084110260009766 3.999999761581421 3 C 3.999999761581421 1.915890216827393 3.313079833984375 1 2.499999761581421 1 M 2.499999761581421 0 C 3.880709648132324 0 5 1.34315013885498 5 3 C 5 4.65684986114502 3.880709648132324 6 2.499999761581421 6 C 1.119289875030518 6 -4.76837158203125e-07 4.65684986114502 -4.76837158203125e-07 3 C -4.76837158203125e-07 1.34315013885498 1.119289875030518 0 2.499999761581421 0 Z" stroke="none" fill="#b9e2b6"/>
      </g>
    </g>
    <line id="Line_41" data-name="Line 41" y2="65.551" transform="translate(300.5 2900.5)" fill="none" stroke="#b9e2b6" stroke-linecap="round" stroke-width="8"/>
    <line id="Line_42" data-name="Line 42" x2="84" transform="translate(300.5 2966.051)" fill="none" stroke="#b9e2b6" stroke-linecap="round" stroke-width="8"/>
    <path id="Path_104" data-name="Path 104" d="M0,0H64" transform="translate(300.5 2900.5)" fill="none" stroke="#b9e2b6" stroke-linecap="round" stroke-width="8"/>
    <line id="Line_44" data-name="Line 44" y1="27" transform="translate(384.5 2939.051)" fill="none" stroke="#b9e2b6" stroke-linecap="round" stroke-width="8"/>
  </g>
</svg>
