<svg xmlns="http://www.w3.org/2000/svg" width="1411.122" height="1116.936" viewBox="0 0 1411.122 1116.936">
  <g id="Group_124" data-name="Group 124" transform="translate(-2696.423 825.85) rotate(-14)" opacity="0.28">
    <g id="Group_122" data-name="Group 122" transform="translate(650 -291)">
      <g id="Rectangle_14" data-name="Rectangle 14" transform="translate(3001 411)" fill="#34384a" stroke="#878787" stroke-width="1">
        <rect width="244" height="266" rx="10" stroke="none"/>
        <rect x="0.5" y="0.5" width="243" height="265" rx="9.5" fill="none"/>
      </g>
      <line id="Line_1" data-name="Line 1" x2="198.596" transform="translate(3046.932 424.5)" fill="none" stroke="#707070" stroke-width="1"/>
      <line id="Line_2" data-name="Line 2" y2="266" transform="translate(3046.932 411.5)" fill="none" stroke="#707070" stroke-width="1"/>
      <rect id="Rectangle_15" data-name="Rectangle 15" width="154" height="4" rx="2" transform="translate(3048 428)" fill="#727272"/>
      <rect id="Rectangle_30" data-name="Rectangle 30" width="154" height="4" rx="2" transform="translate(3048 515)" fill="#727272"/>
      <rect id="Rectangle_37" data-name="Rectangle 37" width="154" height="4" rx="2" transform="translate(3048 599)" fill="#6380e5"/>
      <rect id="Rectangle_15-2" data-name="Rectangle 15" width="90" height="4" rx="2" transform="translate(3055 438)" fill="#727272"/>
      <rect id="Rectangle_29" data-name="Rectangle 29" width="90" height="4" rx="2" transform="translate(3055 525)" fill="#6380e5"/>
      <rect id="Rectangle_36" data-name="Rectangle 36" width="90" height="4" rx="2" transform="translate(3055 609)" fill="#727272"/>
      <rect id="Rectangle_15-3" data-name="Rectangle 15" width="131" height="4" rx="2" transform="translate(3055 448)" fill="#6380e5"/>
      <rect id="Rectangle_28" data-name="Rectangle 28" width="131" height="4" rx="2" transform="translate(3055 535)" fill="#6380e5"/>
      <rect id="Rectangle_35" data-name="Rectangle 35" width="131" height="4" rx="2" transform="translate(3055 619)" fill="#727272"/>
      <rect id="Rectangle_15-4" data-name="Rectangle 15" width="75" height="4" rx="2" transform="translate(3061 458)" fill="#a5b2e1"/>
      <rect id="Rectangle_26" data-name="Rectangle 26" width="75" height="4" rx="2" transform="translate(3061 545)" fill="#b9e2b6"/>
      <rect id="Rectangle_33" data-name="Rectangle 33" width="75" height="4" rx="2" transform="translate(3061 629)" fill="#6380e5"/>
      <path id="Path_1" data-name="Path 1" d="M1.062,0H152.929c.587,0,1.062.9,1.062,2s-.475,2-1.062,2H1.062C.475,4,0,3.1,0,2S.475,0,1.062,0Z" transform="translate(3061.003 468)" fill="#727272"/>
      <path id="Path_2" data-name="Path 2" d="M1.062,0H152.929c.587,0,1.062.9,1.062,2s-.475,2-1.062,2H1.062C.475,4,0,3.1,0,2S.475,0,1.062,0Z" transform="translate(3061.003 555)" fill="#b9e2b6"/>
      <path id="Path_3" data-name="Path 3" d="M1.062,0H152.929c.587,0,1.062.9,1.062,2s-.475,2-1.062,2H1.062C.475,4,0,3.1,0,2S.475,0,1.062,0Z" transform="translate(3061.003 639)" fill="#6380e5"/>
      <rect id="Rectangle_15-5" data-name="Rectangle 15" width="99" height="4" rx="2" transform="translate(3061 478)" fill="#727272"/>
      <rect id="Rectangle_24" data-name="Rectangle 24" width="99" height="4" rx="2" transform="translate(3061 565)" fill="#727272"/>
      <rect id="Rectangle_31" data-name="Rectangle 31" width="99" height="4" rx="2" transform="translate(3061 649)" fill="#727272"/>
      <rect id="Rectangle_15-6" data-name="Rectangle 15" width="154" height="4" rx="2" transform="translate(3061 488)" fill="#727272"/>
      <rect id="Rectangle_25" data-name="Rectangle 25" width="154" height="4" rx="2" transform="translate(3061 575)" fill="#727272"/>
      <rect id="Rectangle_32" data-name="Rectangle 32" width="154" height="4" rx="2" transform="translate(3061 659)" fill="#b9e2b6"/>
      <rect id="Rectangle_23" data-name="Rectangle 23" width="22" height="4" rx="2" transform="translate(3061 497)" fill="#727272"/>
      <rect id="Rectangle_15-7" data-name="Rectangle 15" width="17" height="5" rx="2.5" transform="translate(3006 436)" fill="#727272"/>
      <rect id="Rectangle_15-8" data-name="Rectangle 15" width="28" height="5" rx="2.5" transform="translate(3015 448)" fill="#b9e2b6"/>
      <rect id="Rectangle_15-9" data-name="Rectangle 15" width="28" height="5" rx="2.5" transform="translate(3015 462)" fill="#727272"/>
      <rect id="Rectangle_15-10" data-name="Rectangle 15" width="28" height="5" rx="2.5" transform="translate(3015 476)" fill="#727272"/>
      <rect id="Rectangle_15-11" data-name="Rectangle 15" width="28" height="5" rx="2.5" transform="translate(3015 490)" fill="#b9e2b6"/>
      <path id="Path_4" data-name="Path 4" d="M1.02,0H27.549c.564,0,1.02,1.119,1.02,2.5S28.112,5,27.549,5H1.02C.457,5,0,3.881,0,2.5S.457,0,1.02,0Z" transform="translate(3014.806 504)" fill="#b9e2b6"/>
      <rect id="Rectangle_15-12" data-name="Rectangle 15" width="28" height="5" rx="2.5" transform="translate(3015 518)" fill="#727272"/>
      <rect id="Rectangle_15-13" data-name="Rectangle 15" width="28" height="5" rx="2.5" transform="translate(3015 532)" fill="#727272"/>
      <rect id="Rectangle_15-14" data-name="Rectangle 15" width="28" height="5" rx="2.5" transform="translate(3015 546)" fill="#727272"/>
      <rect id="Rectangle_15-15" data-name="Rectangle 15" width="28" height="5" rx="2.5" transform="translate(3015 560)" fill="#727272"/>
    </g>
    <g id="Group_114" data-name="Group 114" transform="translate(-708 -289)">
      <g id="Rectangle_14-2" data-name="Rectangle 14" transform="translate(3383 706)" fill="#34384a" stroke="#878787" stroke-width="1">
        <rect width="255" height="266" rx="10" stroke="none"/>
        <rect x="0.5" y="0.5" width="254" height="265" rx="9.5" fill="none"/>
      </g>
      <line id="Line_1-2" data-name="Line 1" x2="207.063" transform="translate(3430.89 719.5)" fill="none" stroke="#707070" stroke-width="1"/>
      <line id="Line_2-2" data-name="Line 2" y2="266" transform="translate(3430.89 706.5)" fill="none" stroke="#707070" stroke-width="1"/>
      <rect id="Rectangle_15-16" data-name="Rectangle 15" width="161" height="4" rx="2" transform="translate(3432 723)" fill="#727272"/>
      <rect id="Rectangle_30-2" data-name="Rectangle 30" width="161" height="4" rx="2" transform="translate(3432 810)" fill="#727272"/>
      <rect id="Rectangle_37-2" data-name="Rectangle 37" width="160" height="4" rx="2" transform="translate(3439 864)" fill="#a5b2e1"/>
      <rect id="Rectangle_15-17" data-name="Rectangle 15" width="94" height="4" rx="2" transform="translate(3439 733)" fill="#727272"/>
      <rect id="Rectangle_29-2" data-name="Rectangle 29" width="94" height="4" rx="2" transform="translate(3439 820)" fill="#6380e5"/>
      <rect id="Rectangle_36-2" data-name="Rectangle 36" width="94" height="4" rx="2" transform="translate(3439 876)" fill="#727272"/>
      <rect id="Rectangle_15-18" data-name="Rectangle 15" width="137" height="4" rx="2" transform="translate(3439 743)" fill="#6380e5"/>
      <rect id="Rectangle_28-2" data-name="Rectangle 28" width="137" height="4" rx="2" transform="translate(3439 830)" fill="#6380e5"/>
      <rect id="Rectangle_35-2" data-name="Rectangle 35" width="137" height="4" rx="2" transform="translate(3432 888)" fill="#727272"/>
      <rect id="Rectangle_15-19" data-name="Rectangle 15" width="78" height="4" rx="2" transform="translate(3446 753)" fill="#6380e5"/>
      <rect id="Rectangle_33-2" data-name="Rectangle 33" width="78" height="4" rx="2" transform="translate(3432 900)" fill="#6380e5"/>
      <path id="Path_1-2" data-name="Path 1" d="M1.107,0H159.45c.612,0,1.107.9,1.107,2s-.5,2-1.107,2H1.107C.5,4,0,3.1,0,2S.5,0,1.107,0Z" transform="translate(3445.562 763)" fill="#727272"/>
      <rect id="Rectangle_15-20" data-name="Rectangle 15" width="103" height="4" rx="2" transform="translate(3446 773)" fill="#727272"/>
      <rect id="Rectangle_24-2" data-name="Rectangle 24" width="104" height="4" rx="2" transform="translate(3432 842)" fill="#727272"/>
      <rect id="Rectangle_15-21" data-name="Rectangle 15" width="160" height="4" rx="2" transform="translate(3446 783)" fill="#727272"/>
      <rect id="Rectangle_25-2" data-name="Rectangle 25" width="160" height="4" rx="2" transform="translate(3439 853)" fill="#a5b2e1"/>
      <rect id="Rectangle_32-2" data-name="Rectangle 32" width="161" height="4" rx="2" transform="translate(3432 909)" fill="#b9e2b6"/>
      <rect id="Rectangle_23-2" data-name="Rectangle 23" width="23" height="4" rx="2" transform="translate(3446 792)" fill="#727272"/>
      <rect id="Rectangle_15-22" data-name="Rectangle 15" width="38" height="5" rx="2.5" transform="translate(3389 745)" fill="#b9e2b6"/>
      <rect id="Rectangle_15-23" data-name="Rectangle 15" width="38" height="5" rx="2.5" transform="translate(3389 760)" fill="#727272"/>
      <rect id="Rectangle_15-24" data-name="Rectangle 15" width="38" height="5" rx="2.5" transform="translate(3389 829)" fill="#727272"/>
      <rect id="Rectangle_15-25" data-name="Rectangle 15" width="38" height="5" rx="2.5" transform="translate(3389 843)" fill="#a5b2e1"/>
      <rect id="Rectangle_15-26" data-name="Rectangle 15" width="38" height="5" rx="2.5" transform="translate(3389 857)" fill="#727272"/>
    </g>
    <g id="Group_123" data-name="Group 123" transform="translate(736 -289)">
      <g id="Rectangle_14-3" data-name="Rectangle 14" transform="translate(3001 706)" fill="#34384a" stroke="#878787" stroke-width="1">
        <rect width="326" height="266" rx="10" stroke="none"/>
        <rect x="0.5" y="0.5" width="325" height="265" rx="9.5" fill="none"/>
      </g>
      <path id="Path_5" data-name="Path 5" d="M-.1.45H268.948" transform="translate(3057.518 719.5)" fill="none" stroke="#707070" stroke-width="1"/>
      <line id="Line_2-3" data-name="Line 2" y2="266" transform="translate(3066.345 706.5)" fill="none" stroke="#707070" stroke-width="1"/>
      <rect id="Rectangle_15-27" data-name="Rectangle 15" width="157" height="4" rx="2" transform="translate(3066 723)" fill="#b9e2b6"/>
      <rect id="Rectangle_30-3" data-name="Rectangle 30" width="213" height="4" rx="2" transform="translate(3064 810)" fill="#727272"/>
      <rect id="Rectangle_37-3" data-name="Rectangle 37" width="211" height="4" rx="2" transform="translate(3068 862)" fill="#6380e5"/>
      <rect id="Rectangle_15-28" data-name="Rectangle 15" width="168" height="4" rx="2" transform="translate(3074 733)" fill="#727272"/>
      <rect id="Rectangle_29-3" data-name="Rectangle 29" width="124" height="4" rx="2" transform="translate(3075 820)" fill="#6380e5"/>
      <rect id="Rectangle_36-3" data-name="Rectangle 36" width="124" height="4" rx="2" transform="translate(3075 872)" fill="#727272"/>
      <rect id="Rectangle_15-29" data-name="Rectangle 15" width="170" height="4" rx="2" transform="translate(3079 743)" fill="#6380e5"/>
      <rect id="Rectangle_28-3" data-name="Rectangle 28" width="181" height="4" rx="2" transform="translate(3077 912)" fill="#6380e5"/>
      <rect id="Rectangle_38" data-name="Rectangle 38" width="118" height="4" rx="2" transform="translate(3079 922)" fill="#727272"/>
      <rect id="Rectangle_39" data-name="Rectangle 39" width="164" height="4" rx="2" transform="translate(3078 932)" fill="#727272"/>
      <rect id="Rectangle_40" data-name="Rectangle 40" width="164" height="4" rx="2" transform="translate(3066 942)" fill="#6380e5"/>
      <rect id="Rectangle_35-3" data-name="Rectangle 35" width="181" height="4" rx="2" transform="translate(3065 882)" fill="#727272"/>
      <rect id="Rectangle_15-30" data-name="Rectangle 15" width="103" height="4" rx="2" transform="translate(3084 753)" fill="#6380e5"/>
      <rect id="Rectangle_33-3" data-name="Rectangle 33" width="103" height="4" rx="2" transform="translate(3067 892)" fill="#727272"/>
      <path id="Path_1-3" data-name="Path 1" d="M1.462,0H210.494c.807,0,1.462.9,1.462,2s-.654,2-1.462,2H1.462C.654,4,0,3.1,0,2S.654,0,1.462,0Z" transform="translate(3076.918 763)" fill="#727272"/>
      <rect id="Rectangle_15-31" data-name="Rectangle 15" width="136" height="4" rx="2" transform="translate(3083 773)" fill="#727272"/>
      <rect id="Rectangle_24-3" data-name="Rectangle 24" width="137" height="4" rx="2" transform="translate(3066 842)" fill="#727272"/>
      <rect id="Rectangle_15-32" data-name="Rectangle 15" width="212" height="4" rx="2" transform="translate(3077 793)" fill="#727272"/>
      <rect id="Rectangle_25-3" data-name="Rectangle 25" width="211" height="4" rx="2" transform="translate(3068 852)" fill="#727272"/>
      <rect id="Rectangle_32-3" data-name="Rectangle 32" width="213" height="4" rx="2" transform="translate(3064 902)" fill="#b9e2b6"/>
      <rect id="Rectangle_23-3" data-name="Rectangle 23" width="31" height="4" rx="2" transform="translate(3085 783)" fill="#727272"/>
      <rect id="Rectangle_15-33" data-name="Rectangle 15" width="50" height="5" rx="2.5" transform="translate(3013 742)" fill="#b9e2b6"/>
      <rect id="Rectangle_15-34" data-name="Rectangle 15" width="50" height="5" rx="2.5" transform="translate(3013 754)" fill="#b9e2b6"/>
      <rect id="Rectangle_15-35" data-name="Rectangle 15" width="50" height="5" rx="2.5" transform="translate(3013 766)" fill="#727272"/>
      <rect id="Rectangle_15-36" data-name="Rectangle 15" width="50" height="5" rx="2.5" transform="translate(3013 778)" fill="#727272"/>
      <rect id="Rectangle_15-37" data-name="Rectangle 15" width="28" height="5" rx="2.5" transform="translate(3008 730)" fill="#727272"/>
      <rect id="Rectangle_15-38" data-name="Rectangle 15" width="50" height="5" rx="2.5" transform="translate(3013 815)" fill="#a5b2e1"/>
      <rect id="Rectangle_15-39" data-name="Rectangle 15" width="50" height="5" rx="2.5" transform="translate(3013 827)" fill="#727272"/>
      <rect id="Rectangle_15-40" data-name="Rectangle 15" width="50" height="5" rx="2.5" transform="translate(3013 839)" fill="#a5b2e1"/>
      <rect id="Rectangle_15-41" data-name="Rectangle 15" width="50" height="5" rx="2.5" transform="translate(3013 851)" fill="#727272"/>
      <rect id="Rectangle_15-42" data-name="Rectangle 15" width="28" height="5" rx="2.5" transform="translate(3008 803)" fill="#727272"/>
    </g>
    <g id="Group_120" data-name="Group 120" transform="translate(294 -586)">
      <g id="Rectangle_14-4" data-name="Rectangle 14" transform="translate(3001 706)" fill="#34384a" stroke="#878787" stroke-width="1">
        <rect width="326" height="266" rx="10" stroke="none"/>
        <rect x="0.5" y="0.5" width="325" height="265" rx="9.5" fill="none"/>
      </g>
      <path id="Path_5-2" data-name="Path 5" d="M-.1.45H268.948" transform="translate(3057.518 719.5)" fill="none" stroke="#707070" stroke-width="1"/>
      <line id="Line_2-4" data-name="Line 2" y2="266" transform="translate(3066.345 706.5)" fill="none" stroke="#707070" stroke-width="1"/>
      <rect id="Rectangle_15-43" data-name="Rectangle 15" width="157" height="4" rx="2" transform="translate(3066 723)" fill="#b9e2b6"/>
      <rect id="Rectangle_30-4" data-name="Rectangle 30" width="213" height="4" rx="2" transform="translate(3064 810)" fill="#727272"/>
      <rect id="Rectangle_37-4" data-name="Rectangle 37" width="211" height="4" rx="2" transform="translate(3068 862)" fill="#6380e5"/>
      <rect id="Rectangle_15-44" data-name="Rectangle 15" width="168" height="4" rx="2" transform="translate(3074 733)" fill="#727272"/>
      <rect id="Rectangle_29-4" data-name="Rectangle 29" width="124" height="4" rx="2" transform="translate(3075 820)" fill="#6380e5"/>
      <rect id="Rectangle_36-4" data-name="Rectangle 36" width="124" height="4" rx="2" transform="translate(3075 872)" fill="#727272"/>
      <rect id="Rectangle_15-45" data-name="Rectangle 15" width="170" height="4" rx="2" transform="translate(3079 743)" fill="#6380e5"/>
      <rect id="Rectangle_28-4" data-name="Rectangle 28" width="181" height="4" rx="2" transform="translate(3077 912)" fill="#6380e5"/>
      <rect id="Rectangle_38-2" data-name="Rectangle 38" width="118" height="4" rx="2" transform="translate(3079 922)" fill="#727272"/>
      <rect id="Rectangle_39-2" data-name="Rectangle 39" width="164" height="4" rx="2" transform="translate(3078 932)" fill="#727272"/>
      <rect id="Rectangle_40-2" data-name="Rectangle 40" width="164" height="4" rx="2" transform="translate(3066 942)" fill="#6380e5"/>
      <rect id="Rectangle_35-4" data-name="Rectangle 35" width="181" height="4" rx="2" transform="translate(3065 882)" fill="#727272"/>
      <rect id="Rectangle_15-46" data-name="Rectangle 15" width="103" height="4" rx="2" transform="translate(3084 753)" fill="#6380e5"/>
      <rect id="Rectangle_33-4" data-name="Rectangle 33" width="103" height="4" rx="2" transform="translate(3067 892)" fill="#727272"/>
      <path id="Path_1-4" data-name="Path 1" d="M1.462,0H210.494c.807,0,1.462.9,1.462,2s-.654,2-1.462,2H1.462C.654,4,0,3.1,0,2S.654,0,1.462,0Z" transform="translate(3076.918 763)" fill="#727272"/>
      <rect id="Rectangle_15-47" data-name="Rectangle 15" width="136" height="4" rx="2" transform="translate(3083 773)" fill="#727272"/>
      <rect id="Rectangle_24-4" data-name="Rectangle 24" width="137" height="4" rx="2" transform="translate(3066 842)" fill="#727272"/>
      <rect id="Rectangle_15-48" data-name="Rectangle 15" width="212" height="4" rx="2" transform="translate(3077 793)" fill="#727272"/>
      <rect id="Rectangle_25-4" data-name="Rectangle 25" width="211" height="4" rx="2" transform="translate(3068 852)" fill="#727272"/>
      <rect id="Rectangle_32-4" data-name="Rectangle 32" width="213" height="4" rx="2" transform="translate(3064 902)" fill="#b9e2b6"/>
      <rect id="Rectangle_23-4" data-name="Rectangle 23" width="31" height="4" rx="2" transform="translate(3085 783)" fill="#727272"/>
      <rect id="Rectangle_15-49" data-name="Rectangle 15" width="50" height="5" rx="2.5" transform="translate(3013 742)" fill="#b9e2b6"/>
      <rect id="Rectangle_15-50" data-name="Rectangle 15" width="50" height="5" rx="2.5" transform="translate(3013 754)" fill="#b9e2b6"/>
      <rect id="Rectangle_15-51" data-name="Rectangle 15" width="50" height="5" rx="2.5" transform="translate(3013 766)" fill="#727272"/>
      <rect id="Rectangle_15-52" data-name="Rectangle 15" width="50" height="5" rx="2.5" transform="translate(3013 778)" fill="#727272"/>
      <rect id="Rectangle_15-53" data-name="Rectangle 15" width="28" height="5" rx="2.5" transform="translate(3008 730)" fill="#727272"/>
      <rect id="Rectangle_15-54" data-name="Rectangle 15" width="50" height="5" rx="2.5" transform="translate(3013 815)" fill="#a5b2e1"/>
      <rect id="Rectangle_15-55" data-name="Rectangle 15" width="50" height="5" rx="2.5" transform="translate(3013 827)" fill="#727272"/>
      <rect id="Rectangle_15-56" data-name="Rectangle 15" width="50" height="5" rx="2.5" transform="translate(3013 839)" fill="#a5b2e1"/>
      <rect id="Rectangle_15-57" data-name="Rectangle 15" width="50" height="5" rx="2.5" transform="translate(3013 851)" fill="#727272"/>
      <rect id="Rectangle_15-58" data-name="Rectangle 15" width="28" height="5" rx="2.5" transform="translate(3008 803)" fill="#727272"/>
    </g>
    <g id="Group_111" data-name="Group 111" transform="translate(-273.656 605)">
      <g id="Rectangle_41" data-name="Rectangle 41" transform="translate(3001 109)" fill="#34384a" stroke="#878787" stroke-width="1">
        <rect width="486.655" height="266" rx="10" stroke="none"/>
        <rect x="0.5" y="0.5" width="485.655" height="265" rx="9.5" fill="none"/>
      </g>
      <path id="Path_6" data-name="Path 6" d="M-.1.45H372.229" transform="translate(3114.845 122.5)" fill="none" stroke="#707070" stroke-width="1"/>
      <line id="Line_3" data-name="Line 3" y2="266" transform="translate(3093.971 109.5)" fill="none" stroke="#707070" stroke-width="1"/>
      <rect id="Rectangle_42" data-name="Rectangle 42" width="295.232" height="4" rx="2" transform="translate(3106.421 126)" fill="#727272"/>
      <rect id="Rectangle_43" data-name="Rectangle 43" width="100.058" height="4" rx="2" transform="translate(3100.261 213)" fill="#a5b2e1"/>
      <rect id="Rectangle_44" data-name="Rectangle 44" width="292.762" height="4" rx="2" transform="translate(3129.424 265)" fill="#6380e5"/>
      <rect id="Rectangle_45" data-name="Rectangle 45" width="171.704" height="4" rx="2" transform="translate(3116.129 136)" fill="#727272"/>
      <rect id="Rectangle_46" data-name="Rectangle 46" width="171.704" height="4" rx="2" transform="translate(3116.129 223)" fill="#6380e5"/>
      <rect id="Rectangle_47" data-name="Rectangle 47" width="171.704" height="4" rx="2" transform="translate(3116.129 275)" fill="#727272"/>
      <rect id="Rectangle_48" data-name="Rectangle 48" width="134.646" height="4" rx="2" transform="translate(3115.272 146)" fill="#6380e5"/>
      <rect id="Rectangle_49" data-name="Rectangle 49" width="251.998" height="4" rx="2" transform="translate(3124.433 315)" fill="#6380e5"/>
      <rect id="Rectangle_50" data-name="Rectangle 50" width="163.057" height="4" rx="2" transform="translate(3121.194 325)" fill="#727272"/>
      <rect id="Rectangle_51" data-name="Rectangle 51" width="227.292" height="4" rx="2" transform="translate(3123.291 335)" fill="#727272"/>
      <rect id="Rectangle_52" data-name="Rectangle 52" width="227.292" height="4" rx="2" transform="translate(3103.133 345)" fill="#6380e5"/>
      <rect id="Rectangle_53" data-name="Rectangle 53" width="251.998" height="4" rx="2" transform="translate(3104.087 285)" fill="#727272"/>
      <rect id="Rectangle_54" data-name="Rectangle 54" width="87.705" height="4" rx="2" transform="translate(3127.465 156)" fill="#6380e5"/>
      <rect id="Rectangle_55" data-name="Rectangle 55" width="144.528" height="4" rx="2" transform="translate(3101.007 295)" fill="#727272"/>
      <path id="Path_7" data-name="Path 7" d="M1.2,0h171.1c.661,0,1.2.9,1.2,2s-.536,2-1.2,2H1.2C.536,4,0,3.1,0,2S.536,0,1.2,0Z" transform="translate(3129.364 166)" fill="#727272"/>
      <rect id="Rectangle_56" data-name="Rectangle 56" width="155.646" height="4" rx="2" transform="translate(3128.92 176)" fill="#727272"/>
      <rect id="Rectangle_57" data-name="Rectangle 57" width="190.233" height="4" rx="2" transform="translate(3102.023 245)" fill="#a5b2e1"/>
      <rect id="Rectangle_58" data-name="Rectangle 58" width="134.646" height="4" rx="2" transform="translate(3141.541 196)" fill="#727272"/>
      <rect id="Rectangle_59" data-name="Rectangle 59" width="292.762" height="4" rx="2" transform="translate(3129.424 255)" fill="#727272"/>
      <rect id="Rectangle_60" data-name="Rectangle 60" width="295.232" height="4" rx="2" transform="translate(3106.421 305)" fill="#a5b2e1"/>
      <rect id="Rectangle_61" data-name="Rectangle 61" width="43.235" height="4" rx="2" transform="translate(3141.028 186)" fill="#727272"/>
      <rect id="Rectangle_62" data-name="Rectangle 62" width="69.176" height="5" rx="2.5" transform="translate(3017.059 145)" fill="#a5b2e1"/>
      <rect id="Rectangle_63" data-name="Rectangle 63" width="69.176" height="5" rx="2.5" transform="translate(3017.059 157)" fill="#b9e2b6"/>
      <rect id="Rectangle_64" data-name="Rectangle 64" width="69.176" height="5" rx="2.5" transform="translate(3017.059 169)" fill="#727272"/>
      <rect id="Rectangle_65" data-name="Rectangle 65" width="69.176" height="5" rx="2.5" transform="translate(3017.059 181)" fill="#727272"/>
      <rect id="Rectangle_66" data-name="Rectangle 66" width="39.529" height="5" rx="2.5" transform="translate(3009.647 133)" fill="#727272"/>
      <rect id="Rectangle_67" data-name="Rectangle 67" width="69.176" height="5" rx="2.5" transform="translate(3017.059 218)" fill="#a5b2e1"/>
      <rect id="Rectangle_68" data-name="Rectangle 68" width="69.176" height="5" rx="2.5" transform="translate(3017.059 230)" fill="#727272"/>
      <rect id="Rectangle_69" data-name="Rectangle 69" width="69.176" height="5" rx="2.5" transform="translate(3017.059 242)" fill="#a5b2e1"/>
      <rect id="Rectangle_70" data-name="Rectangle 70" width="69.176" height="5" rx="2.5" transform="translate(3017.059 254)" fill="#727272"/>
      <rect id="Rectangle_71" data-name="Rectangle 71" width="39.529" height="5" rx="2.5" transform="translate(3009.647 206)" fill="#727272"/>
    </g>
    <g id="Group_121" data-name="Group 121" transform="translate(650 605)">
      <g id="Rectangle_41-2" data-name="Rectangle 41" transform="translate(3001 109)" fill="#34384a" stroke="#878787" stroke-width="1">
        <rect width="245" height="266" rx="10" stroke="none"/>
        <rect x="0.5" y="0.5" width="244" height="265" rx="9.5" fill="none"/>
      </g>
      <path id="Path_6-2" data-name="Path 6" d="M-.1.45H195.4" transform="translate(3049.821 122.5)" fill="none" stroke="#707070" stroke-width="1"/>
      <line id="Line_3-2" data-name="Line 3" y2="266" transform="translate(3049.817 109.5)" fill="none" stroke="#707070" stroke-width="1"/>
      <rect id="Rectangle_42-2" data-name="Rectangle 42" width="155" height="4" rx="2" transform="translate(3050 126)" fill="#727272"/>
      <rect id="Rectangle_43-2" data-name="Rectangle 43" width="53" height="4" rx="2" transform="translate(3050 213)" fill="#a5b2e1"/>
      <rect id="Rectangle_44-2" data-name="Rectangle 44" width="154" height="4" rx="2" transform="translate(3057 265)" fill="#6380e5"/>
      <rect id="Rectangle_45-2" data-name="Rectangle 45" width="91" height="4" rx="2" transform="translate(3057 136)" fill="#727272"/>
      <rect id="Rectangle_46-2" data-name="Rectangle 46" width="91" height="4" rx="2" transform="translate(3057 223)" fill="#6380e5"/>
      <rect id="Rectangle_47-2" data-name="Rectangle 47" width="91" height="4" rx="2" transform="translate(3057 275)" fill="#727272"/>
      <rect id="Rectangle_48-2" data-name="Rectangle 48" width="71" height="4" rx="2" transform="translate(3057 146)" fill="#6380e5"/>
      <rect id="Rectangle_49-2" data-name="Rectangle 49" width="132" height="4" rx="2" transform="translate(3060 315)" fill="#6380e5"/>
      <rect id="Rectangle_50-2" data-name="Rectangle 50" width="86" height="4" rx="2" transform="translate(3060 325)" fill="#727272"/>
      <rect id="Rectangle_51-2" data-name="Rectangle 51" width="119" height="4" rx="2" transform="translate(3060 335)" fill="#727272"/>
      <rect id="Rectangle_52-2" data-name="Rectangle 52" width="120" height="4" rx="2" transform="translate(3050 345)" fill="#6380e5"/>
      <rect id="Rectangle_53-2" data-name="Rectangle 53" width="133" height="4" rx="2" transform="translate(3050 285)" fill="#727272"/>
      <rect id="Rectangle_54-2" data-name="Rectangle 54" width="46" height="4" rx="2" transform="translate(3064 156)" fill="#6380e5"/>
      <rect id="Rectangle_55-2" data-name="Rectangle 55" width="76" height="4" rx="2" transform="translate(3050 295)" fill="#727272"/>
      <path id="Path_7-2" data-name="Path 7" d="M.628,0H90.466c.347,0,.628.9.628,2s-.281,2-.628,2H.628C.281,4,0,3.1,0,2S.281,0,.628,0Z" transform="translate(3063.891 166)" fill="#727272"/>
      <rect id="Rectangle_56-2" data-name="Rectangle 56" width="82" height="4" rx="2" transform="translate(3064 176)" fill="#727272"/>
      <rect id="Rectangle_57-2" data-name="Rectangle 57" width="100" height="4" rx="2" transform="translate(3050 245)" fill="#a5b2e1"/>
      <rect id="Rectangle_58-2" data-name="Rectangle 58" width="71" height="4" rx="2" transform="translate(3070 196)" fill="#727272"/>
      <rect id="Rectangle_59-2" data-name="Rectangle 59" width="154" height="4" rx="2" transform="translate(3057 255)" fill="#727272"/>
      <rect id="Rectangle_60-2" data-name="Rectangle 60" width="155" height="4" rx="2" transform="translate(3050 305)" fill="#a5b2e1"/>
      <rect id="Rectangle_61-2" data-name="Rectangle 61" width="23" height="4" rx="2" transform="translate(3071 186)" fill="#727272"/>
      <rect id="Rectangle_62-2" data-name="Rectangle 62" width="37" height="5" rx="2.5" transform="translate(3009 145)" fill="#a5b2e1"/>
      <rect id="Rectangle_63-2" data-name="Rectangle 63" width="37" height="5" rx="2.5" transform="translate(3009 157)" fill="#b9e2b6"/>
      <rect id="Rectangle_64-2" data-name="Rectangle 64" width="37" height="5" rx="2.5" transform="translate(3009 169)" fill="#727272"/>
      <rect id="Rectangle_65-2" data-name="Rectangle 65" width="37" height="5" rx="2.5" transform="translate(3009 181)" fill="#727272"/>
      <rect id="Rectangle_66-2" data-name="Rectangle 66" width="20" height="5" rx="2.5" transform="translate(3006 133)" fill="#727272"/>
      <rect id="Rectangle_67-2" data-name="Rectangle 67" width="37" height="5" rx="2.5" transform="translate(3009 218)" fill="#a5b2e1"/>
      <rect id="Rectangle_68-2" data-name="Rectangle 68" width="37" height="5" rx="2.5" transform="translate(3009 230)" fill="#727272"/>
      <rect id="Rectangle_69-2" data-name="Rectangle 69" width="37" height="5" rx="2.5" transform="translate(3009 242)" fill="#a5b2e1"/>
      <rect id="Rectangle_70-2" data-name="Rectangle 70" width="37" height="5" rx="2.5" transform="translate(3009 254)" fill="#727272"/>
      <rect id="Rectangle_71-2" data-name="Rectangle 71" width="20" height="5" rx="2.5" transform="translate(3006 206)" fill="#727272"/>
    </g>
    <g id="Group_116" data-name="Group 116" transform="translate(-532.974 -586)">
      <g id="Rectangle_14-5" data-name="Rectangle 14" transform="translate(3382.974 706)" fill="#34384a" stroke="#878787" stroke-width="1">
        <rect width="415" height="266" rx="10" stroke="none"/>
        <rect x="0.5" y="0.5" width="414" height="265" rx="9.5" fill="none"/>
      </g>
      <line id="Line_1-3" data-name="Line 1" x2="336.964" transform="translate(3460.934 719.5)" fill="none" stroke="#707070" stroke-width="1"/>
      <line id="Line_2-5" data-name="Line 2" y2="266" transform="translate(3460.934 706.5)" fill="none" stroke="#707070" stroke-width="1"/>
      <rect id="Rectangle_15-59" data-name="Rectangle 15" width="262" height="4" rx="2" transform="translate(3462.974 723)" fill="#727272"/>
      <rect id="Rectangle_30-5" data-name="Rectangle 30" width="262" height="4" rx="2" transform="translate(3462.974 810)" fill="#727272"/>
      <rect id="Rectangle_37-5" data-name="Rectangle 37" width="261" height="4" rx="2" transform="translate(3473.974 864)" fill="#a5b2e1"/>
      <rect id="Rectangle_15-60" data-name="Rectangle 15" width="153" height="4" rx="2" transform="translate(3473.974 733)" fill="#727272"/>
      <rect id="Rectangle_29-5" data-name="Rectangle 29" width="153" height="4" rx="2" transform="translate(3473.974 820)" fill="#6380e5"/>
      <rect id="Rectangle_36-5" data-name="Rectangle 36" width="153" height="4" rx="2" transform="translate(3473.974 876)" fill="#727272"/>
      <rect id="Rectangle_15-61" data-name="Rectangle 15" width="223" height="4" rx="2" transform="translate(3473.974 743)" fill="#6380e5"/>
      <rect id="Rectangle_28-5" data-name="Rectangle 28" width="223" height="4" rx="2" transform="translate(3473.974 830)" fill="#6380e5"/>
      <rect id="Rectangle_35-5" data-name="Rectangle 35" width="223" height="4" rx="2" transform="translate(3462.974 888)" fill="#727272"/>
      <rect id="Rectangle_15-62" data-name="Rectangle 15" width="126" height="4" rx="2" transform="translate(3485.974 753)" fill="#6380e5"/>
      <rect id="Rectangle_33-5" data-name="Rectangle 33" width="127" height="4" rx="2" transform="translate(3462.974 900)" fill="#6380e5"/>
      <path id="Path_1-5" data-name="Path 1" d="M1.8,0H259.48a1.909,1.909,0,0,1,1.8,2,1.909,1.909,0,0,1-1.8,2H1.8A1.909,1.909,0,0,1,0,2,1.909,1.909,0,0,1,1.8,0Z" transform="translate(3484.81 763)" fill="#727272"/>
      <rect id="Rectangle_15-63" data-name="Rectangle 15" width="167" height="4" rx="2" transform="translate(3485.974 773)" fill="#727272"/>
      <rect id="Rectangle_24-5" data-name="Rectangle 24" width="169" height="4" rx="2" transform="translate(3462.974 842)" fill="#727272"/>
      <rect id="Rectangle_15-64" data-name="Rectangle 15" width="260" height="4" rx="2" transform="translate(3485.974 783)" fill="#727272"/>
      <rect id="Rectangle_25-5" data-name="Rectangle 25" width="261" height="4" rx="2" transform="translate(3473.974 853)" fill="#a5b2e1"/>
      <rect id="Rectangle_32-5" data-name="Rectangle 32" width="262" height="4" rx="2" transform="translate(3462.974 909)" fill="#b9e2b6"/>
      <rect id="Rectangle_23-5" data-name="Rectangle 23" width="37" height="4" rx="2" transform="translate(3485.974 792)" fill="#727272"/>
      <rect id="Rectangle_15-65" data-name="Rectangle 15" width="62" height="5" rx="2.5" transform="translate(3392.974 745)" fill="#b9e2b6"/>
      <rect id="Rectangle_15-66" data-name="Rectangle 15" width="62" height="5" rx="2.5" transform="translate(3392.974 760)" fill="#727272"/>
      <rect id="Rectangle_15-67" data-name="Rectangle 15" width="62" height="5" rx="2.5" transform="translate(3392.974 829)" fill="#727272"/>
      <rect id="Rectangle_15-68" data-name="Rectangle 15" width="62" height="5" rx="2.5" transform="translate(3392.974 843)" fill="#a5b2e1"/>
      <rect id="Rectangle_15-69" data-name="Rectangle 15" width="62" height="5" rx="2.5" transform="translate(3392.974 857)" fill="#727272"/>
    </g>
    <g id="Group_118" data-name="Group 118" transform="translate(243 605)">
      <g id="Rectangle_41-3" data-name="Rectangle 41" transform="translate(3001 109)" fill="#34384a" stroke="#878787" stroke-width="1">
        <rect width="377" height="266" rx="10" stroke="none"/>
        <rect x="0.5" y="0.5" width="376" height="265" rx="9.5" fill="none"/>
      </g>
      <path id="Path_6-3" data-name="Path 6" d="M-.1.45h301.41" transform="translate(3076.217 122.5)" fill="none" stroke="#707070" stroke-width="1"/>
      <line id="Line_3-3" data-name="Line 3" y2="266" transform="translate(3076.263 109.5)" fill="none" stroke="#707070" stroke-width="1"/>
      <rect id="Rectangle_42-3" data-name="Rectangle 42" width="239" height="4" rx="2" transform="translate(3077 126)" fill="#727272"/>
      <rect id="Rectangle_43-3" data-name="Rectangle 43" width="81" height="4" rx="2" transform="translate(3077 213)" fill="#a5b2e1"/>
      <rect id="Rectangle_44-3" data-name="Rectangle 44" width="237" height="4" rx="2" transform="translate(3088 265)" fill="#6380e5"/>
      <rect id="Rectangle_45-3" data-name="Rectangle 45" width="139" height="4" rx="2" transform="translate(3088 136)" fill="#727272"/>
      <rect id="Rectangle_46-3" data-name="Rectangle 46" width="139" height="4" rx="2" transform="translate(3088 223)" fill="#6380e5"/>
      <rect id="Rectangle_47-3" data-name="Rectangle 47" width="139" height="4" rx="2" transform="translate(3088 275)" fill="#727272"/>
      <rect id="Rectangle_48-3" data-name="Rectangle 48" width="109" height="4" rx="2" transform="translate(3088 146)" fill="#6380e5"/>
      <rect id="Rectangle_49-3" data-name="Rectangle 49" width="204" height="4" rx="2" transform="translate(3092 315)" fill="#6380e5"/>
      <rect id="Rectangle_50-3" data-name="Rectangle 50" width="132" height="4" rx="2" transform="translate(3092 325)" fill="#727272"/>
      <rect id="Rectangle_51-3" data-name="Rectangle 51" width="184" height="4" rx="2" transform="translate(3092 335)" fill="#727272"/>
      <rect id="Rectangle_52-3" data-name="Rectangle 52" width="184" height="4" rx="2" transform="translate(3077 345)" fill="#6380e5"/>
      <rect id="Rectangle_53-3" data-name="Rectangle 53" width="204" height="4" rx="2" transform="translate(3077 285)" fill="#727272"/>
      <rect id="Rectangle_54-3" data-name="Rectangle 54" width="71" height="4" rx="2" transform="translate(3098 156)" fill="#6380e5"/>
      <rect id="Rectangle_55-3" data-name="Rectangle 55" width="117" height="4" rx="2" transform="translate(3077 295)" fill="#727272"/>
      <path id="Path_7-3" data-name="Path 7" d="M.969,0H139.476c.535,0,.969.9.969,2s-.434,2-.969,2H.969C.434,4,0,3.1,0,2S.434,0,.969,0Z" transform="translate(3097.962 166)" fill="#727272"/>
      <rect id="Rectangle_56-3" data-name="Rectangle 56" width="126" height="4" rx="2" transform="translate(3098 176)" fill="#727272"/>
      <rect id="Rectangle_57-3" data-name="Rectangle 57" width="154" height="4" rx="2" transform="translate(3077 245)" fill="#a5b2e1"/>
      <rect id="Rectangle_58-3" data-name="Rectangle 58" width="109" height="4" rx="2" transform="translate(3108 196)" fill="#727272"/>
      <rect id="Rectangle_59-3" data-name="Rectangle 59" width="237" height="4" rx="2" transform="translate(3088 255)" fill="#727272"/>
      <rect id="Rectangle_60-3" data-name="Rectangle 60" width="239" height="4" rx="2" transform="translate(3077 305)" fill="#a5b2e1"/>
      <rect id="Rectangle_61-3" data-name="Rectangle 61" width="35" height="4" rx="2" transform="translate(3109 186)" fill="#727272"/>
      <rect id="Rectangle_62-3" data-name="Rectangle 62" width="56" height="5" rx="2.5" transform="translate(3014 145)" fill="#a5b2e1"/>
      <rect id="Rectangle_63-3" data-name="Rectangle 63" width="56" height="5" rx="2.5" transform="translate(3014 157)" fill="#b9e2b6"/>
      <rect id="Rectangle_64-3" data-name="Rectangle 64" width="56" height="5" rx="2.5" transform="translate(3014 169)" fill="#727272"/>
      <rect id="Rectangle_65-3" data-name="Rectangle 65" width="56" height="5" rx="2.5" transform="translate(3014 181)" fill="#727272"/>
      <rect id="Rectangle_66-3" data-name="Rectangle 66" width="32" height="5" rx="2.5" transform="translate(3008 133)" fill="#727272"/>
      <rect id="Rectangle_67-3" data-name="Rectangle 67" width="56" height="5" rx="2.5" transform="translate(3014 218)" fill="#a5b2e1"/>
      <rect id="Rectangle_68-3" data-name="Rectangle 68" width="56" height="5" rx="2.5" transform="translate(3014 230)" fill="#727272"/>
      <rect id="Rectangle_69-3" data-name="Rectangle 69" width="56" height="5" rx="2.5" transform="translate(3014 242)" fill="#a5b2e1"/>
      <rect id="Rectangle_70-3" data-name="Rectangle 70" width="56" height="5" rx="2.5" transform="translate(3014 254)" fill="#727272"/>
      <rect id="Rectangle_71-3" data-name="Rectangle 71" width="32" height="5" rx="2.5" transform="translate(3008 206)" fill="#727272"/>
    </g>
    <g id="Group_119" data-name="Group 119" transform="translate(68 -289)">
      <g id="Rectangle_14-6" data-name="Rectangle 14" transform="translate(3383 706)" fill="#34384a" stroke="#878787" stroke-width="1">
        <rect width="255" height="266" rx="10" stroke="none"/>
        <rect x="0.5" y="0.5" width="254" height="265" rx="9.5" fill="none"/>
      </g>
      <line id="Line_1-4" data-name="Line 1" x2="207.063" transform="translate(3430.89 719.5)" fill="none" stroke="#707070" stroke-width="1"/>
      <line id="Line_2-6" data-name="Line 2" y2="266" transform="translate(3430.89 706.5)" fill="none" stroke="#707070" stroke-width="1"/>
      <rect id="Rectangle_15-70" data-name="Rectangle 15" width="161" height="4" rx="2" transform="translate(3432 723)" fill="#727272"/>
      <rect id="Rectangle_30-6" data-name="Rectangle 30" width="161" height="4" rx="2" transform="translate(3432 810)" fill="#727272"/>
      <rect id="Rectangle_37-6" data-name="Rectangle 37" width="160" height="4" rx="2" transform="translate(3439 864)" fill="#a5b2e1"/>
      <rect id="Rectangle_15-71" data-name="Rectangle 15" width="94" height="4" rx="2" transform="translate(3439 733)" fill="#727272"/>
      <rect id="Rectangle_29-6" data-name="Rectangle 29" width="94" height="4" rx="2" transform="translate(3439 820)" fill="#6380e5"/>
      <rect id="Rectangle_36-6" data-name="Rectangle 36" width="94" height="4" rx="2" transform="translate(3439 876)" fill="#727272"/>
      <rect id="Rectangle_15-72" data-name="Rectangle 15" width="137" height="4" rx="2" transform="translate(3439 743)" fill="#6380e5"/>
      <rect id="Rectangle_28-6" data-name="Rectangle 28" width="137" height="4" rx="2" transform="translate(3439 830)" fill="#6380e5"/>
      <rect id="Rectangle_35-6" data-name="Rectangle 35" width="137" height="4" rx="2" transform="translate(3432 888)" fill="#727272"/>
      <rect id="Rectangle_15-73" data-name="Rectangle 15" width="78" height="4" rx="2" transform="translate(3446 753)" fill="#6380e5"/>
      <rect id="Rectangle_33-6" data-name="Rectangle 33" width="78" height="4" rx="2" transform="translate(3432 900)" fill="#6380e5"/>
      <path id="Path_1-6" data-name="Path 1" d="M1.107,0H159.45c.612,0,1.107.9,1.107,2s-.5,2-1.107,2H1.107C.5,4,0,3.1,0,2S.5,0,1.107,0Z" transform="translate(3445.562 763)" fill="#727272"/>
      <rect id="Rectangle_15-74" data-name="Rectangle 15" width="103" height="4" rx="2" transform="translate(3446 773)" fill="#727272"/>
      <rect id="Rectangle_24-6" data-name="Rectangle 24" width="104" height="4" rx="2" transform="translate(3432 842)" fill="#727272"/>
      <rect id="Rectangle_15-75" data-name="Rectangle 15" width="160" height="4" rx="2" transform="translate(3446 783)" fill="#727272"/>
      <rect id="Rectangle_25-6" data-name="Rectangle 25" width="160" height="4" rx="2" transform="translate(3439 853)" fill="#a5b2e1"/>
      <rect id="Rectangle_32-6" data-name="Rectangle 32" width="161" height="4" rx="2" transform="translate(3432 909)" fill="#b9e2b6"/>
      <rect id="Rectangle_23-6" data-name="Rectangle 23" width="23" height="4" rx="2" transform="translate(3446 792)" fill="#727272"/>
      <rect id="Rectangle_15-76" data-name="Rectangle 15" width="38" height="5" rx="2.5" transform="translate(3389 745)" fill="#b9e2b6"/>
      <rect id="Rectangle_15-77" data-name="Rectangle 15" width="38" height="5" rx="2.5" transform="translate(3389 760)" fill="#727272"/>
      <rect id="Rectangle_15-78" data-name="Rectangle 15" width="38" height="5" rx="2.5" transform="translate(3389 829)" fill="#727272"/>
      <rect id="Rectangle_15-79" data-name="Rectangle 15" width="38" height="5" rx="2.5" transform="translate(3389 843)" fill="#a5b2e1"/>
      <rect id="Rectangle_15-80" data-name="Rectangle 15" width="38" height="5" rx="2.5" transform="translate(3389 857)" fill="#727272"/>
    </g>
  </g>
</svg>
