<svg id="Group_149" data-name="Group 149" xmlns="http://www.w3.org/2000/svg" width="125.249" height="125.249" viewBox="0 0 125.249 125.249">
  <g id="Path_25" data-name="Path 25" fill="none">
    <path d="M62.625,0A62.625,62.625,0,1,1,0,62.625,62.625,62.625,0,0,1,62.625,0Z" stroke="none"/>
    <path d="M 62.62464141845703 5 C 54.84316253662109 5 47.29710388183594 6.522903442382813 40.19606018066406 9.526382446289063 C 36.78263854980469 10.97013854980469 33.49002075195313 12.75736236572266 30.40964508056641 14.83842468261719 C 27.35723876953125 16.90058135986328 24.48674011230469 19.26898193359375 21.87786102294922 21.87786102294922 C 19.26898193359375 24.48674011230469 16.90058135986328 27.35723876953125 14.83842468261719 30.40964508056641 C 12.75736236572266 33.49002075195313 10.97013854980469 36.78263854980469 9.526382446289063 40.19606018066406 C 6.522903442382813 47.29710388183594 5 54.84316253662109 5 62.62464141845703 C 5 70.40612030029297 6.522903442382813 77.95217895507813 9.526382446289063 85.05322265625 C 10.97013854980469 88.46664428710938 12.75736236572266 91.75926208496094 14.83842468261719 94.83964538574219 C 16.90058135986328 97.89204406738281 19.26898193359375 100.7625427246094 21.87786102294922 103.3714218139648 C 24.48674011230469 105.9803009033203 27.35723876953125 108.3487014770508 30.40964508056641 110.4108581542969 C 33.49002075195313 112.4919204711914 36.78263854980469 114.2791442871094 40.19606018066406 115.722900390625 C 47.29710388183594 118.7263793945313 54.84316253662109 120.2492828369141 62.62464141845703 120.2492828369141 C 70.40612030029297 120.2492828369141 77.95217895507813 118.7263793945313 85.05322265625 115.722900390625 C 88.46664428710938 114.2791442871094 91.75926208496094 112.4919204711914 94.83964538574219 110.4108581542969 C 97.89204406738281 108.3487014770508 100.7625427246094 105.9803009033203 103.3714218139648 103.3714218139648 C 105.9803009033203 100.7625427246094 108.3487014770508 97.89204406738281 110.4108581542969 94.83964538574219 C 112.4919204711914 91.75926208496094 114.2791442871094 88.46664428710938 115.722900390625 85.05322265625 C 118.7263793945313 77.95217895507813 120.2492828369141 70.40612030029297 120.2492828369141 62.62464141845703 C 120.2492828369141 54.84316253662109 118.7263793945313 47.29710388183594 115.722900390625 40.19606018066406 C 114.2791442871094 36.78263854980469 112.4919204711914 33.49002075195313 110.4108581542969 30.40964508056641 C 108.3487014770508 27.35723876953125 105.9803009033203 24.48674011230469 103.3714218139648 21.87786102294922 C 100.7625427246094 19.26898193359375 97.89204406738281 16.90058135986328 94.83964538574219 14.83842468261719 C 91.75926208496094 12.75736236572266 88.46664428710938 10.97013854980469 85.05322265625 9.526382446289063 C 77.95217895507813 6.522903442382813 70.40612030029297 5 62.62464141845703 5 M 62.62464141845703 0 C 97.21128082275391 0 125.2492828369141 28.03800201416016 125.2492828369141 62.62464141845703 C 125.2492828369141 97.21128082275391 97.21128082275391 125.2492828369141 62.62464141845703 125.2492828369141 C 28.03800201416016 125.2492828369141 0 97.21128082275391 0 62.62464141845703 C 0 28.03800201416016 28.03800201416016 0 62.62464141845703 0 Z" stroke="none" fill="#b9e2b6"/>
  </g>
  <circle id="Ellipse_3" data-name="Ellipse 3" cx="51" cy="51" r="51" transform="translate(12 12)" fill="#b9e2b6"/>
  <path id="Exclusion_1" data-name="Exclusion 1" d="M8.2,38.055h0a7.25,7.25,0,0,1-3.68-1.05A8.986,8.986,0,0,1-.05,31.547c-.769-3.063.586-6.169,1.858-8.235A39.383,39.383,0,0,1,6.767,17.9c2.407-2.342,5.469-5.153,8.624-7.914,3.19-2.792,6.242-5.33,8.594-7.144C26.618.806,28.3-.268,28.853-.268a.288.288,0,0,1,.1.015.259.259,0,0,1,.143.173c.515,1.467-2.921,11.125-4.422,15.209-2.512,6.834-5.437,14.006-6.259,15.349a22.483,22.483,0,0,1-3.764,4.608C12.5,37.056,10.328,38.055,8.2,38.055ZM8.75,26.1a3.271,3.271,0,1,0,3.28,3.271A3.28,3.28,0,0,0,8.75,26.1Z" transform="matrix(0.588, 0.809, -0.809, 0.588, 80.142, 39.693)" fill="#1f222b" stroke="#1f222b" stroke-width="1"/>
  <line id="Line_15" data-name="Line 15" y2="6.484" transform="translate(62.625 14.163)" fill="none" stroke="#38415d" stroke-width="5"/>
  <line id="Line_16" data-name="Line 16" x2="4.437" y2="4.778" transform="translate(28.155 28.838)" fill="none" stroke="#38415d" stroke-width="5"/>
  <line id="Line_17" data-name="Line 17" x1="5.119" y2="4.778" transform="translate(92.316 28.838)" fill="none" stroke="#38415d" stroke-width="5"/>
  <line id="Line_18" data-name="Line 18" x1="5.802" transform="translate(13.481 63.648)" fill="none" stroke="#38415d" stroke-width="5"/>
  <line id="Line_19" data-name="Line 19" x1="5.802" transform="translate(106.308 63.648)" fill="none" stroke="#38415d" stroke-width="5"/>
</svg>
