<svg id="Group_148" data-name="Group 148" xmlns="http://www.w3.org/2000/svg" width="115.019" height="113.263" viewBox="0 0 115.019 113.263">
  <g id="Group_91" data-name="Group 91" transform="translate(0 0)">
    <g id="Group_86" data-name="Group 86" transform="translate(0 24.285)">
      <g id="Path_23" data-name="Path 23" fill="#1f222b">
        <path d="M 84.22891998291016 71.20713043212891 L 10.02725315093994 71.20713043212891 C 7.255219459533691 71.20713043212891 5.000002861022949 68.95191192626953 5.000002861022949 66.17987823486328 L 5.000002861022949 10.02726173400879 C 5.000002861022949 7.255211353302002 7.255219459533691 4.99999475479126 10.02725315093994 4.99999475479126 L 84.22891998291016 4.99999475479126 C 87.00095367431641 4.99999475479126 89.25617218017578 7.255211353302002 89.25617218017578 10.02726173400879 L 89.25617218017578 66.17987823486328 C 89.25617218017578 68.95191192626953 87.00095367431641 71.20713043212891 84.22891998291016 71.20713043212891 Z" stroke="none"/>
        <path d="M 10.02725982666016 9.999992370605469 L 10 10.02725982666016 L 10.02725982666016 66.20712280273438 L 84.25617218017578 66.17986297607422 L 84.22891235351563 9.999992370605469 L 10.02725982666016 9.999992370605469 M 10.02725982666016 -7.62939453125e-06 L 84.22891235351563 -7.62939453125e-06 C 89.76679992675781 -7.62939453125e-06 94.25617218017578 4.489364624023438 94.25617218017578 10.02725982666016 L 94.25617218017578 66.17986297607422 C 94.25617218017578 71.71778106689453 89.76679992675781 76.20713043212891 84.22891235351563 76.20713043212891 L 10.02725982666016 76.20713043212891 C 4.489349365234375 76.20713043212891 0 71.71778106689453 0 66.17986297607422 L 0 10.02725982666016 C 0 4.489364624023438 4.489349365234375 -7.62939453125e-06 10.02725982666016 -7.62939453125e-06 Z" stroke="none" fill="#b9e2b6"/>
      </g>
      <line id="Line_4" data-name="Line 4" x2="87.237" transform="translate(3.76 58.91)" fill="none" stroke="#b9e2b6" stroke-width="10"/>
      <line id="Line_5" data-name="Line 5" y2="8.022" transform="translate(47.379 75.956)" fill="none" stroke="#b9e2b6" stroke-width="10"/>
      <line id="Line_6" data-name="Line 6" x2="44.621" transform="translate(24.817 83.978)" fill="none" stroke="#b9e2b6" stroke-linecap="round" stroke-width="10"/>
    </g>
    <g id="Group_88" data-name="Group 88" transform="translate(67.756)">
      <rect id="Rectangle_83" data-name="Rectangle 83" width="47" height="71" transform="translate(0.263)" fill="#1f222b"/>
      <g id="Group_87" data-name="Group 87" transform="translate(7.263 5)">
        <g id="Path_96" data-name="Path 96" fill="#b9e2b6">
          <path d="M 23 57.5 L 10 57.5 C 4.761680126190186 57.5 0.5 53.23831939697266 0.5 48 L 0.5 10 C 0.5 4.761680126190186 4.761680126190186 0.5 10 0.5 L 23 0.5 C 28.23831939697266 0.5 32.5 4.761680126190186 32.5 10 L 32.5 48 C 32.5 53.23831939697266 28.23831939697266 57.5 23 57.5 Z" stroke="none"/>
          <path d="M 10 1 C 5.037380218505859 1 1 5.037380218505859 1 10 L 1 48 C 1 52.96261978149414 5.037380218505859 57 10 57 L 23 57 C 27.96261978149414 57 32 52.96261978149414 32 48 L 32 10 C 32 5.037380218505859 27.96261978149414 1 23 1 L 10 1 M 10 0 L 23 0 C 28.52285003662109 0 33 4.477149963378906 33 10 L 33 48 C 33 53.5228385925293 28.52285003662109 58 23 58 L 10 58 C 4.477149963378906 58 0 53.5228385925293 0 48 L 0 10 C 0 4.477149963378906 4.477149963378906 0 10 0 Z" stroke="none" fill="#b9e2b6"/>
        </g>
        <g id="Rectangle_81" data-name="Rectangle 81" transform="translate(4 5)" fill="#1f222b" stroke="#b9e2b6" stroke-width="1">
          <rect width="26" height="43" stroke="none"/>
          <rect x="0.5" y="0.5" width="25" height="42" fill="none"/>
        </g>
        <g id="Rectangle_82" data-name="Rectangle 82" transform="translate(11 2)" fill="#fff" stroke="#b9e2b6" stroke-width="1">
          <rect width="11" height="2" rx="1" stroke="none"/>
          <rect x="0.5" y="0.5" width="10" height="1" rx="0.5" fill="none"/>
        </g>
        <g id="Path_95" data-name="Path 95" transform="translate(14 50)" fill="#1f222b">
          <path d="M 2.499999761581421 5.5 C 1.397199749946594 5.5 0.4999997615814209 4.378499984741211 0.4999997615814209 3 C 0.4999997615814209 1.621500015258789 1.397199749946594 0.5 2.499999761581421 0.5 C 3.602799654006958 0.5 4.5 1.621500015258789 4.5 3 C 4.5 4.378499984741211 3.602799654006958 5.5 2.499999761581421 5.5 Z" stroke="none"/>
          <path d="M 2.499999761581421 1 C 1.686919689178467 1 0.9999997615814209 1.915890216827393 0.9999997615814209 3 C 0.9999997615814209 4.084110260009766 1.686919689178467 5 2.499999761581421 5 C 3.313079833984375 5 3.999999761581421 4.084110260009766 3.999999761581421 3 C 3.999999761581421 1.915890216827393 3.313079833984375 1 2.499999761581421 1 M 2.499999761581421 0 C 3.880709648132324 0 5 1.34315013885498 5 3 C 5 4.65684986114502 3.880709648132324 6 2.499999761581421 6 C 1.119289875030518 6 -4.76837158203125e-07 4.65684986114502 -4.76837158203125e-07 3 C -4.76837158203125e-07 1.34315013885498 1.119289875030518 0 2.499999761581421 0 Z" stroke="none" fill="#b9e2b6"/>
        </g>
      </g>
    </g>
  </g>
</svg>
